<svg width="131" height="50" viewBox="0 0 131 50" fill="none" xmlns="http://www.w3.org/2000/svg">
<path d="M17.9425 33.4925C17.9822 33.3047 17.9786 33.1277 17.5163 33.0266C17.2418 32.9688 16.765 32.9615 16.0967 32.9977C15.2696 33.0482 13.6405 33.3553 11.253 33.9151C8.88348 34.4714 7.37726 34.9446 6.77043 35.3274C6.40923 35.5658 6.10221 35.8151 5.86381 36.0679C5.64709 36.2955 5.51344 36.5339 5.46649 36.7759C5.46649 36.7903 5.46288 36.8011 5.46288 36.8084C5.49177 36.8156 5.55679 36.83 5.69043 36.8228C5.87826 36.812 6.02997 36.7939 6.13833 36.7722L6.82823 36.6314L4.51291 40.4601L4.42261 40.4999C3.48709 40.9153 3.15839 41.0959 3.05003 41.1753C2.7105 41.4209 2.64548 41.5582 2.63103 41.5943C2.57324 41.7569 2.51545 41.9122 2.46127 42.0567C2.4107 42.1867 2.37819 42.2951 2.36374 42.3745C2.33123 42.5371 2.33485 42.6635 2.3818 42.7538C2.4107 42.808 2.501 42.8513 2.63464 42.8694L3.15478 42.9452L2.83331 43.3642C2.33846 44.0108 1.80026 44.8668 1.22595 45.9035C0.579391 47.0702 0.20374 47.8973 0.109826 48.3669L0.0520324 48.645C-0.0418808 49.1038 0.0122999 49.3205 0.0520324 49.4108C0.0737047 49.4614 0.2218 49.5336 0.640797 49.5119C1.06341 49.4866 1.42461 49.3494 1.71719 49.111C2.00254 48.8726 2.19759 48.5114 2.29511 48.031L2.50461 47.0016C2.53351 46.8679 2.57685 46.662 2.64187 46.3875C2.70327 46.1202 2.7719 45.8601 2.83692 45.6218C3.12227 44.726 3.45097 43.9169 3.81578 43.2197L3.88802 43.0825L4.03973 43.0572C5.97217 42.7321 7.92629 42.2734 9.84429 41.6991C12.8531 40.7852 12.9976 40.359 13.0012 40.3409C13.0373 40.2181 13.0554 40.1098 13.059 40.0122C13.0409 40.0122 13.0157 40.0122 12.9868 40.0122C12.2174 40.1567 11.4227 40.3012 10.6281 40.4349C9.80816 40.5757 8.86542 40.6769 7.82515 40.7383C7.00522 40.7888 6.5212 40.7997 6.30448 40.7744C6.10221 40.7527 5.88187 40.7238 5.6507 40.6841L5.18836 40.6082L5.43759 40.2145C5.8602 39.5463 6.31171 38.8781 6.78127 38.2315C7.34475 37.4658 7.95157 36.6964 8.59452 35.9487L8.65954 35.8728L8.75706 35.8476C9.49753 35.6706 10.5775 35.4213 11.9971 35.0963C13.413 34.7712 14.269 34.5906 14.5399 34.5545C14.8975 34.5328 15.2226 34.54 15.5405 34.5725C15.8186 34.6014 16.1148 34.605 16.4182 34.5906C16.8083 34.5653 17.1514 34.4678 17.4404 34.2908C17.7005 34.1355 17.863 33.8718 17.9425 33.4853V33.4925Z" fill="#808184"/>
<path d="M21.2698 46.5497C21.2698 46.5497 21.2698 46.5316 21.2734 46.5244L19.4024 47.1637C18.7739 47.366 18.3188 47.4418 18.0081 47.4021C17.8239 47.3949 17.7156 47.2865 17.665 47.2251C17.5675 47.0987 17.5386 46.9289 17.5819 46.723C17.6108 46.5786 17.7083 46.3185 18.1887 45.5888C18.5391 45.0543 18.6439 44.8087 18.6908 44.7039C18.7016 44.6786 18.7089 44.6642 18.7161 44.6497C18.8389 44.4041 18.857 44.1838 18.7667 44.0104C18.7667 44.0104 18.6908 43.9707 18.4669 43.9815C18.2501 43.9959 17.6144 44.1946 15.8048 45.3794C13.8182 46.6797 13.1897 46.8531 12.8935 46.8711C12.6876 46.882 12.5287 46.8278 12.4203 46.705C12.3481 46.6219 12.2758 46.4774 12.3228 46.2426C12.3625 46.0512 12.5142 45.6647 13.363 44.3427C14.1396 43.1254 14.3058 42.6992 14.3347 42.5511C14.3889 42.2947 14.3997 42.0924 14.3708 41.9551C14.36 41.9046 14.3419 41.8648 14.2444 41.8359C14.0674 41.8359 13.8615 41.9118 13.6376 42.0707C13.3269 42.2874 13.1319 42.5475 12.9766 42.7534L12.9477 42.7931C12.3408 43.6492 11.734 44.5088 11.1308 45.3613C10.5456 46.1957 10.1194 46.9145 9.8702 47.5032C9.77628 47.7525 9.75822 47.8355 9.75822 47.85C9.68598 48.2076 9.73294 48.4785 9.90632 48.6772C10.0797 48.8794 10.3578 48.9625 10.7515 48.9408C11.3295 48.9083 12.0302 48.6483 12.8429 48.1679C13.6665 47.6838 14.5044 47.1818 15.3352 46.6689L15.942 46.2968L15.8012 46.9939C15.6711 47.626 15.7145 48.1137 15.9312 48.4388C16.1263 48.7349 16.5958 48.8614 17.3255 48.8216C17.8348 48.7927 18.6258 48.4604 19.6733 47.8355C21.1289 46.9723 21.2662 46.6183 21.277 46.5569L21.2698 46.5497Z" fill="#808184"/>
<path d="M38.7555 45.5067C38.7555 45.5067 38.7556 45.4886 38.7592 45.4814L36.8881 46.1207C36.2632 46.3194 35.8081 46.3989 35.4939 46.3591C35.3133 46.3519 35.2013 46.2435 35.1507 46.1821C35.0532 46.0557 35.0243 45.886 35.0677 45.6765C35.0965 45.532 35.1941 45.2719 35.6745 44.5423C36.1188 43.8668 36.1838 43.6682 36.191 43.6248C36.2921 43.13 36.2524 42.9783 36.2452 42.9566C36.2452 42.9638 36.1946 42.9349 36.0501 42.9349C36.0212 42.9349 35.9851 42.9349 35.949 42.9349C35.7323 42.9494 35.0965 43.148 33.2869 44.3328C31.3003 45.6331 30.6718 45.8065 30.3756 45.8245C30.1661 45.839 30.0108 45.7812 29.9024 45.6584C29.8302 45.5753 29.7579 45.4308 29.8049 45.1961C29.8446 45.0046 29.9963 44.6181 30.8452 43.2961C31.6218 42.0789 31.7879 41.6526 31.8168 41.5045C31.871 41.2481 31.8818 41.0458 31.8529 40.9122C31.8421 40.8616 31.824 40.8183 31.7265 40.793C31.7157 40.793 31.564 40.8002 31.1811 41.0711C30.8488 41.3059 30.5959 41.5334 30.4298 41.7502C29.823 42.6062 29.2161 43.4659 28.6129 44.3183C28.0278 45.1491 27.6016 45.8715 27.3523 46.4603C27.262 46.7059 27.2404 46.789 27.2367 46.807C27.1645 47.1646 27.2115 47.4355 27.3848 47.6342C27.5582 47.8328 27.8327 47.9195 28.2301 47.8979C28.808 47.8617 29.5087 47.6017 30.3214 47.1249C31.163 46.6264 32.0046 46.1243 32.8137 45.6259L33.4206 45.2538L33.2797 45.951C33.1497 46.5867 33.193 47.0707 33.4097 47.3958C33.6048 47.692 34.0743 47.8184 34.804 47.7787C35.3133 47.7498 36.1007 47.4175 37.1518 46.7926C38.6075 45.9293 38.7447 45.5753 38.7555 45.5139V45.5067Z" fill="#808184"/>
<path d="M47.8906 40.471C47.9122 40.3734 47.9447 40.2109 47.5546 40.0772C47.1645 39.9436 46.695 39.893 46.1604 39.9219C45.6439 39.9508 45.0479 40.1386 44.3869 40.4746C43.7367 40.8033 43.2635 41.1934 42.9782 41.6268L42.0932 42.9741L42.4147 41.3956C42.4653 41.1572 42.4147 40.973 42.2522 40.8033C42.0896 40.6299 41.9198 40.5468 41.7212 40.5613C41.537 40.5721 41.2877 40.6732 40.9771 40.8683C40.7062 41.0344 40.54 41.2042 40.5111 41.3487C40.475 41.5257 40.4534 42.0025 40.4461 42.7574C40.4425 43.1258 40.3811 43.5918 40.2691 44.1408C40.2402 44.2781 40.1463 44.5706 39.6587 45.5423C39.1964 46.4597 39.1205 46.7017 39.1061 46.7667C39.041 47.0774 39.0555 47.2291 39.0699 47.2905C39.1205 47.3086 39.2542 47.3338 39.554 47.3194C39.9332 47.2977 40.2836 47.1677 40.6014 46.9329C40.9049 46.709 41.0855 46.4489 41.1469 46.1383L41.2805 45.4845C41.3925 44.9427 41.5334 44.4912 41.7031 44.1444C41.8693 43.8049 42.0607 43.4906 42.281 43.2125C42.6748 42.7249 43.0576 42.3348 43.4152 42.053C43.9462 41.6232 44.4627 41.3884 44.9503 41.3595C45.391 41.3306 45.7197 41.4462 45.9364 41.6954C46.0231 41.7966 46.1387 41.8363 46.3157 41.8255C46.7564 41.8002 47.114 41.681 47.3704 41.4715C47.6233 41.2692 47.7966 40.9333 47.8906 40.471Z" fill="#808184"/>
<path d="M47.8752 42.1142C46.7266 43.3784 46.0692 44.4043 45.9139 45.1664C45.8417 45.5096 45.8092 45.7696 45.8128 45.9358C45.8128 46.0658 45.8633 46.1995 45.9573 46.3403C46.1234 46.6221 46.2968 46.7918 46.5099 46.8821C46.6652 46.9472 46.9939 47.0194 47.691 46.976C48.4496 46.9327 49.8546 46.4704 51.8629 45.6035C54.7092 44.379 54.8646 43.9853 54.8682 43.9672C54.8826 43.895 54.8898 43.8444 54.8898 43.8083C54.8393 43.8011 54.7562 43.7974 54.6334 43.8047C54.4564 43.8733 53.7087 44.1839 52.4084 44.7257C50.3676 45.5782 49.8583 45.701 49.6415 45.7154C48.7494 45.7696 48.4315 45.3795 48.3159 45.0436L48.2003 44.6968L48.5615 44.639C49.3128 44.5162 50.252 44.0828 51.3573 43.3459C52.4409 42.6235 53.0658 42.0131 53.2247 41.5291C53.2247 41.5002 53.2572 41.399 53.3042 41.269C53.3908 40.8283 53.3042 40.4635 53.026 40.1601C52.7804 39.8892 52.4228 39.7556 51.928 39.752C51.8593 39.752 51.7871 39.752 51.7112 39.7592C50.5084 39.8314 49.2189 40.6189 47.8716 42.107L47.8752 42.1142ZM48.8144 43.0714C49.4645 42.2407 49.6596 42.042 49.7535 41.9589C50.1725 41.5616 50.6023 41.3665 51.0647 41.3702C51.3392 41.3521 51.4909 41.4785 51.5559 41.5544C51.6787 41.6989 51.7148 41.8975 51.6643 42.1467C51.5993 42.4646 51.2995 42.7644 50.7215 43.0859C50.2014 43.3748 49.6451 43.541 49.0744 43.5735L48.3882 43.6132L48.8108 43.0714H48.8144Z" fill="#808184"/>
<path d="M73.5466 43.8339C73.5466 43.8339 73.5466 43.8195 73.5466 43.8122C73.5285 43.8122 73.4924 43.805 73.4455 43.805L71.9067 44.4949C71.3577 44.7405 70.9315 44.8706 70.6028 44.8886C70.3788 44.9067 70.1802 44.8381 70.0429 44.7008C69.8804 44.5419 69.8045 44.2963 69.819 43.9748C69.837 43.5558 69.8732 43.0754 69.9309 42.5444C69.9779 42.1001 69.8912 41.7353 69.66 41.4319C69.4758 41.1935 69.1399 41.0707 68.6595 41.0635C68.5873 41.0635 68.515 41.0635 68.4356 41.0707C67.3483 41.1357 66.095 41.7064 64.7079 42.7684C63.3317 43.8195 62.5479 44.7803 62.3782 45.6219C62.2698 46.1565 62.3493 46.3587 62.4035 46.4346C62.4179 46.4526 62.566 46.6116 63.3498 46.5646C64.4768 46.496 65.4665 46.1709 66.2972 45.5894C66.5501 45.4088 66.9221 45.1487 67.4134 44.8056L67.7529 44.5672L67.8829 44.9609C68.1502 45.77 68.6956 46.1203 69.595 46.0698C70.173 46.0337 70.9784 45.7194 71.9862 45.127C73.3082 44.354 73.5177 43.9639 73.543 43.8303L73.5466 43.8339ZM67.8071 43.3427C67.7276 43.7328 67.3917 44.1084 66.7813 44.4913C66.3261 44.7731 65.8855 44.9573 65.4267 45.0512C65.1992 45.0981 65.1125 45.1017 64.9608 45.0981C64.7657 45.0981 64.6538 45.0151 64.5887 44.95C64.4948 44.8525 64.4515 44.7153 64.4587 44.5672C64.549 44.1084 64.8849 43.6967 65.5134 43.2596C66.113 42.8442 66.6332 42.6275 67.1063 42.5986C67.37 42.5805 67.5651 42.6492 67.6915 42.7973C67.8107 42.9345 67.8504 43.1187 67.8035 43.3427H67.8071Z" fill="#808184"/>
<path d="M80.8103 45.6646C81.6772 45.614 82.6453 45.1878 83.6819 44.404C84.8594 43.5191 85.0437 43.1362 85.0689 43.0098C85.087 42.9195 85.087 42.8653 85.0834 42.84C84.5958 43.1506 84.1118 43.4577 83.6386 43.7683C83.0751 44.0934 82.555 44.2704 82.0818 44.2993C81.8362 44.3137 81.54 44.2993 81.4063 44.0681C81.3233 43.9308 81.316 43.7394 81.381 43.4288C81.3955 43.3529 81.4388 43.2337 81.8073 42.5077C81.9409 42.244 81.9734 42.1356 81.9806 42.1031C82.0312 41.8539 81.9915 41.6805 81.8506 41.5433C81.7025 41.3988 81.4063 41.3374 80.9946 41.3591C80.637 41.3807 80.1096 41.5758 79.4378 41.9442C78.8887 42.2765 78.3108 42.6197 77.7257 42.9592C77.3934 43.1831 77.0394 43.4143 76.6746 43.6383C76.3206 43.855 75.6812 44.1909 75.3887 43.9778L75.3525 43.9489C75.1503 43.7358 75.2442 43.454 75.3489 43.1542C75.3706 43.0856 75.3959 43.0134 75.4176 42.9375C75.5765 42.486 75.8366 41.8286 76.205 40.922C76.2881 40.4994 76.2375 40.3188 76.2014 40.2502C76.1761 40.2068 76.0713 40.1599 75.851 40.1562C75.8113 40.1562 75.7679 40.1562 75.7246 40.1562C75.3995 40.1743 75.1069 40.2574 74.8577 40.3983C74.6229 40.5283 74.4568 40.7342 74.3412 41.0267C73.7885 42.3451 73.7199 42.4932 73.6982 42.5366C73.2467 43.6455 72.9758 44.4221 72.8891 44.8375C72.8277 45.1481 72.8638 45.3865 73.0047 45.5635C73.1384 45.7332 73.3984 45.8055 73.7849 45.7838C74.2473 45.7549 74.7746 45.5779 75.3562 45.2492L75.4031 45.2239C75.4862 45.1734 75.7896 44.9819 76.819 44.3029C77.3247 43.9597 77.8232 43.6527 78.2964 43.3962C78.9646 43.035 79.221 42.9773 79.3728 42.9664C79.7701 42.9411 79.8965 43.1976 79.9146 43.3493C79.9254 43.4721 79.9109 43.631 79.8604 43.8694L79.7954 44.1981C79.6545 44.8916 79.6942 45.1734 79.734 45.2781C79.7737 45.3865 79.8965 45.7116 80.8176 45.6574L80.8103 45.6646Z" fill="#808184"/>
<path d="M103.389 28.6417C103.36 28.5947 103.23 28.5478 102.966 28.5622C102.768 28.5731 102.085 28.8693 100.001 31.3471C98.5091 33.1206 96.396 35.808 93.7231 39.3297L93.3836 39.7776L93.1885 39.2503C93.044 38.8602 92.8887 38.5856 92.7262 38.4303C92.5167 38.2497 92.1735 38.163 91.7401 38.1883C91.1333 38.2244 90.3422 38.5495 89.3886 39.16C88.5976 39.6584 87.6946 40.3628 86.7049 41.2513C85.9211 41.934 85.3432 42.4903 84.9783 42.9165C84.5774 43.3824 84.3354 43.7906 84.2668 44.1374C84.2018 44.4552 84.2523 44.7297 84.4149 44.9681C84.563 45.1812 84.87 45.2752 85.3287 45.2499C85.9464 45.2137 86.9 44.8634 88.1678 44.2132C89.1683 43.7003 90.0208 43.1729 90.6926 42.6492L92.6612 41.1177L91.6715 42.6203C91.3897 43.0863 91.3066 43.563 91.303 43.5667C91.1947 44.094 91.2199 44.5419 91.3753 44.9067C91.5053 45.2101 91.704 45.3366 92.0327 45.3185C92.8093 45.2715 94.2469 44.6069 96.3057 43.3391C99.2134 41.5475 99.4482 41.0238 99.4663 40.9371C99.4988 40.7709 99.5024 40.677 99.4988 40.6301C99.4554 40.6228 99.376 40.6156 99.2423 40.6192L95.7495 42.7251C94.2541 43.6245 93.7592 43.7473 93.5172 43.7617C93.333 43.7725 92.9501 43.7978 92.8201 43.4258C92.7442 43.2055 92.8273 42.819 92.8562 42.707C92.9357 42.3855 93.0368 42.1616 93.1199 41.981L93.1632 41.8907C93.1632 41.8907 93.4341 41.32 93.7267 40.9479C93.8062 40.8612 94.9259 39.6801 97.2087 37.2709C99.0509 35.3276 100.402 33.825 101.229 32.8064C102.493 31.2351 103.212 30.0684 103.36 29.3352C103.468 28.8006 103.389 28.6525 103.378 28.6345L103.389 28.6417ZM90.5878 41.273C90.4361 41.7101 89.013 42.6781 88.7313 42.8406C88.175 43.1693 87.6621 43.3499 87.207 43.3752C87.1853 43.3752 87.1636 43.3752 87.1456 43.3752C86.9686 43.3752 86.8313 43.3174 86.7374 43.2055C86.6652 43.1224 86.5929 42.9779 86.6399 42.7431C86.6905 42.5011 86.8747 42.1291 87.8933 41.385C88.6482 40.8287 89.2622 40.547 89.7715 40.5181C90.0749 40.4928 90.3711 40.612 90.5228 40.8143C90.624 40.9515 90.6493 41.1177 90.5915 41.2694L90.5878 41.273Z" fill="#808184"/>
<path d="M117.646 41.5118V41.501C117.646 41.501 117.65 41.4902 117.65 41.4829C117.632 41.4829 117.596 41.4757 117.538 41.4757L115.963 42.1837C115.403 42.4365 114.966 42.5665 114.634 42.5882C114.403 42.6063 114.211 42.5413 114.063 42.3968C113.901 42.2342 113.825 41.985 113.839 41.6599C113.857 41.2301 113.893 40.7389 113.955 40.2007C114.005 39.7455 113.911 39.3699 113.677 39.0592C113.489 38.8136 113.142 38.6872 112.651 38.6836C112.579 38.6836 112.499 38.6836 112.42 38.6908C111.307 38.7558 110.025 39.341 108.605 40.4246C107.2 41.501 106.398 42.4835 106.221 43.3431C106.109 43.8922 106.192 44.1017 106.25 44.1775C106.276 44.21 106.438 44.3617 107.222 44.3148C108.374 44.2461 109.389 43.9102 110.238 43.3179L110.393 43.2095C110.643 43.0325 110.971 42.8013 111.379 42.516L111.719 42.2776L111.849 42.6713C112.123 43.5021 112.683 43.8597 113.604 43.8091C114.197 43.773 115.02 43.4515 116.053 42.8447C117.408 42.0536 117.621 41.6527 117.646 41.5154V41.5118ZM111.766 41.0061V41.0206C111.676 41.4143 111.336 41.7936 110.722 42.1764C110.133 42.5449 109.664 42.7327 109.295 42.7544C109.147 42.7616 108.995 42.7688 108.851 42.7652C108.699 42.7652 108.569 42.711 108.479 42.6171C108.418 42.5521 108.349 42.4365 108.36 42.2595C108.45 41.7936 108.793 41.3746 109.436 40.9267C110.047 40.5004 110.578 40.2801 111.058 40.2512C111.329 40.2332 111.524 40.3054 111.65 40.4499C111.773 40.5908 111.809 40.775 111.766 41.0025V41.0061Z" fill="#808184"/>
<path d="M120.492 34.5549C120.412 34.9486 120.438 35.2773 120.564 35.5229C120.669 35.7288 120.817 35.8083 121.052 35.7974C121.413 35.7757 121.778 35.6204 122.146 35.3387C122.507 35.0606 122.731 34.6885 122.829 34.2081C122.868 34.0131 122.811 33.8505 122.641 33.6916C122.457 33.5182 122.236 33.4424 121.969 33.4568C121.604 33.4785 121.276 33.5905 120.99 33.7927C120.723 33.9806 120.56 34.2334 120.492 34.5585V34.5549Z" fill="#808184"/>
<path d="M119.17 38.4235C118.921 38.438 118.39 38.7053 117.595 40.3199C117.097 41.3312 116.768 42.209 116.62 42.935C116.562 43.2203 116.62 43.4118 116.804 43.5526C117.028 43.7224 117.317 43.7946 117.689 43.7766C118.571 43.7224 119.755 43.0867 121.207 41.8875C122.999 40.4029 123.154 40.0164 123.169 39.955C123.176 39.9153 123.169 39.9009 123.169 39.9009C123.125 39.8647 123.071 39.8358 123.003 39.8106L120.911 41.2373C120.127 41.7719 119.557 42.0428 119.174 42.0681C118.628 42.097 118.535 41.7466 118.516 41.6346C118.502 41.5227 118.498 41.3312 118.603 40.8183C118.628 40.6919 118.722 40.4138 119.221 39.3049C119.333 39.0556 119.409 38.8461 119.441 38.6836C119.463 38.5752 119.459 38.4922 119.427 38.4488C119.427 38.4488 119.387 38.4199 119.25 38.4199C119.224 38.4199 119.196 38.4199 119.163 38.4199L119.17 38.4235Z" fill="#808184"/>
<path d="M130.108 37.2992C130.126 37.2089 130.158 37.0536 129.793 36.9271C129.425 36.8007 128.984 36.7537 128.486 36.7826C128.002 36.8115 127.442 36.9849 126.824 37.2992C126.214 37.6098 125.769 37.971 125.502 38.3792L124.671 39.6434L124.975 38.1588C125.022 37.9349 124.975 37.7615 124.823 37.6026C124.668 37.4364 124.513 37.3678 124.325 37.375C124.151 37.3859 123.917 37.4798 123.628 37.6604C123.375 37.8157 123.219 37.9782 123.191 38.1119C123.172 38.2058 123.136 38.5056 123.129 39.4339C123.125 39.7807 123.068 40.2177 122.963 40.7306C122.934 40.8679 122.844 41.1424 122.389 42.0454C121.959 42.9051 121.883 43.1326 121.872 43.194C121.814 43.4866 121.825 43.6275 121.84 43.6853C121.89 43.7033 122.017 43.725 122.295 43.7106C122.649 43.6889 122.981 43.5697 123.277 43.3493C123.563 43.1399 123.729 42.8942 123.79 42.6017L123.917 41.9876C124.021 41.4783 124.151 41.0557 124.31 40.7306C124.466 40.4128 124.646 40.1202 124.852 39.8565C125.22 39.4014 125.578 39.0366 125.914 38.7693C126.409 38.3647 126.893 38.148 127.352 38.1191C127.763 38.0938 128.074 38.2022 128.276 38.4334C128.312 38.4767 128.388 38.567 128.634 38.5562C129.053 38.5309 129.378 38.4225 129.624 38.2239C129.858 38.036 130.024 37.7182 130.111 37.2847L130.108 37.2992Z" fill="#808184"/>
<path d="M21.6053 47.8792C21.5367 48.2115 21.5475 48.4571 21.6342 48.5582C21.6848 48.6196 21.7967 48.6449 21.9593 48.6377C22.5516 48.6016 22.7395 48.5149 22.7937 48.4788C22.8262 48.4571 22.9417 48.3524 23.0321 47.9081C23.2632 46.7811 23.6678 45.6433 24.2349 44.5344C24.5238 43.9601 24.9898 43.1871 25.6219 42.2372L25.6941 42.1288L25.8242 42.1035C27.8361 41.7351 29.4832 41.4064 30.7185 41.1174C31.2856 41.0055 31.6721 40.8863 31.8779 40.7598C32.0983 40.6226 32.1416 40.5251 32.1489 40.4889C32.1561 40.46 32.1561 40.442 32.1561 40.4275C32.1308 40.4203 32.0802 40.4095 31.9791 40.4167C31.0761 40.5034 30.1622 40.5829 29.2701 40.6515C28.3707 40.7237 27.6446 40.7743 27.0414 40.8104L26.3515 40.8501L29.0172 37.4945C31.6432 34.1642 32.2897 32.9976 32.3728 32.6075C32.3981 32.4846 32.3836 32.4377 32.38 32.4269C32.38 32.4269 32.3475 32.416 32.2789 32.416C32.2139 32.416 32.1344 32.4232 32.0405 32.4449C31.5059 32.5388 30.4729 33.2215 28.544 35.9414C27.6591 37.202 26.5827 38.9105 25.3546 41.0235L25.286 41.1427L25.1523 41.1716C24.9428 41.215 24.6214 41.2944 24.1951 41.3992C23.7725 41.5039 23.4185 41.6159 23.144 41.7243C23.0357 41.764 22.9454 41.8435 22.8623 41.9699C22.8081 42.053 22.7575 42.1541 22.7142 42.2877C22.6889 42.3889 22.6347 42.5948 22.6203 42.667C22.6203 42.6778 22.6058 42.7501 22.6492 42.797C22.6889 42.8404 22.7648 42.8548 22.8731 42.8404C23.209 42.8006 23.4872 42.7501 23.4908 42.7501L23.7039 42.7103L23.5739 42.8837C23.5739 42.8837 22.8045 43.9204 22.4505 44.7439C22.1507 45.441 21.9665 46.149 21.887 46.4488C21.7606 47.0954 21.6703 47.5758 21.6089 47.8756L21.6053 47.8792Z" fill="#808184"/>
<path d="M76.9462 17.1491C76.7222 16.7662 76.3827 16.3256 76.1588 15.9391C76.054 15.7549 69.7654 5.74588 68.0425 3.10187C65.8897 -0.203152 64.788 -0.553521 60.1863 0.595109L60.0996 0.61678V26.2587H65.803C65.803 26.2587 65.8102 9.30736 65.803 8.70415C67.1539 10.7955 74.8909 23.3293 76.2852 25.0775C76.6933 25.5868 77.5241 26.1828 78.3332 26.2984C78.857 26.3743 79.406 26.3996 79.9622 26.3996C80.6196 26.3996 81.2879 26.3634 81.9452 26.3273L82.6568 26.2912V0.360328H76.9426C76.9426 0.360328 76.9751 14.5484 76.9426 17.1527L76.9462 17.1491Z" fill="#EC1C24"/>
<path d="M11.0046 0.359675C8.48337 0.377735 7.472 2.01399 7.46478 3.41185C7.45394 5.55379 7.46478 26.24 7.46478 26.24H13.3669V14.3347H25.46V10.9466H13.3669C13.3669 10.3434 13.3813 6.97332 13.3813 5.53573C13.3813 4.8964 13.3452 4.45212 13.6161 4.16677C13.9628 3.80195 14.6166 3.66469 15.7147 3.67553C18.7416 3.70804 27.1468 3.70082 27.1468 3.70082V0.348833C27.1468 0.348833 14.7539 0.33439 11.001 0.359675H11.0046Z" fill="#EC1C24"/>
<path d="M122.722 0.324219H116.812V26.2695H122.722V0.324219Z" fill="#EC1C24"/>
<path d="M53.6998 0.334961H47.7941C47.7941 0.334961 47.823 14.8482 47.776 18.3807C47.7544 20.0025 47.3462 21.1801 46.5263 21.9783C45.6702 22.8127 44.3735 23.2209 42.5675 23.2209C42.5097 23.2209 42.4483 23.2209 42.3869 23.2209C40.4833 23.2462 39.1396 22.8416 38.2547 21.9819C37.4348 21.1837 37.0085 20.0062 36.9869 18.3843C36.9435 14.8518 36.9869 0.338571 36.9869 0.338571H31.0812C31.0812 0.338571 31.0342 15.9173 31.0631 18.2001C31.1245 23.0078 35.17 26.497 40.6784 26.5006C41.166 26.5006 41.6645 26.5151 42.1665 26.5259H42.3905H42.6108C43.1129 26.5114 43.6077 26.5006 44.099 26.5006C49.6182 26.497 53.5698 23.0836 53.7178 18.2001C53.7793 16.1557 53.6998 0.334961 53.6998 0.334961Z" fill="#EC1C24"/>
<path d="M109.085 16.6319L109.15 16.7222C109.103 16.6391 108.197 14.6055 107.091 12.1024L103.682 4.36538C103.548 4.06196 103.425 3.78022 103.32 3.54183C102.985 2.76885 102.71 2.10062 102.436 1.57688C102.432 1.56965 102.428 1.56243 102.425 1.5552C102.392 1.4938 102.36 1.43601 102.327 1.37821C102.291 1.3132 102.255 1.2554 102.219 1.19761C102.204 1.17594 102.19 1.15427 102.175 1.1326C102.139 1.07842 102.103 1.02784 102.067 0.977276C102.056 0.962828 102.049 0.948379 102.038 0.937543C101.175 -0.167743 100.131 -0.156906 97.2848 0.514934L86.1416 26.2688H92.3688L95.3487 19.1748H104.209C104.484 19.8394 106.633 25.0227 107.203 26.2002L107.236 26.2616H113.329L109.089 16.6355L109.085 16.6319ZM96.7177 15.9059L99.7446 8.69621L102.818 15.9059H96.7177Z" fill="#EC1C24"/>
</svg>
