<svg width="155" height="26" viewBox="0 0 155 26" fill="none" xmlns="http://www.w3.org/2000/svg">
<path d="M124.592 0.590822V10.1284H137.354C137.354 10.1646 137.342 0.586796 137.354 0.590822C137.342 0.590822 143.611 0.590822 143.675 0.590822C143.675 0.590822 143.695 24.4166 143.675 24.4447C143.671 24.4447 137.362 24.4447 137.354 24.4447V13.945C137.354 13.9732 124.592 13.945 124.592 13.945C124.604 13.9852 124.592 24.4528 124.592 24.4447H118.279C118.279 24.4447 118.316 0.590822 118.279 0.590822H124.592Z" fill="#404041"/>
<path d="M64.6248 0.59082C64.6248 0.659262 64.6248 4.64901 64.6248 4.64901H54.9625V24.4447H48.6417V4.64901H38.9834C38.9834 4.64901 38.9955 0.598872 38.9834 0.59082C38.9955 0.594846 64.6208 0.59082 64.6208 0.59082" fill="#404041"/>
<path d="M89.1826 24.4447C89.2027 24.4447 82.1009 24.4447 82.1452 24.4447C82.1613 24.4447 80.0799 19.3156 80.0799 19.3156H68.2354C68.2354 19.3156 66.2023 24.4528 66.1701 24.4447C66.1741 24.4528 59.1367 24.4447 59.1367 24.4447L70.2846 0.59082H78.0347L89.1826 24.4447ZM74.1617 4.64901L69.7613 15.499H78.5621L74.1617 4.64901Z" fill="#404041"/>
<path d="M155 0.595703H148.68V24.4496H155V0.595703Z" fill="#404041"/>
<path d="M6.32078 0.591798C6.32078 0.591798 6.31273 10.1978 6.32078 10.1293H19.0751C19.0751 10.1656 19.067 0.587772 19.0751 0.591798C19.067 0.591798 25.3274 0.591798 25.3959 0.591798C25.3959 0.591798 25.416 24.4175 25.3959 24.4457C25.3878 24.4457 19.0791 24.4457 19.0751 24.4457V13.946C19.0751 13.9741 6.32078 13.946 6.32078 13.946C6.32481 13.9862 6.31273 24.4538 6.32078 24.4457H0C0 24.4457 0.0362338 0.591798 0 0.591798H6.32078Z" fill="#404041"/>
<path d="M36.7209 0.595703H30.4082V24.4496H36.7209V0.595703Z" fill="#404041"/>
<path d="M88.9618 17.8391C88.4062 16.2368 88.1123 14.5459 88.1123 12.7583C88.1123 10.2542 88.5552 7.8265 89.7549 5.81351C90.9909 3.73208 92.8911 2.12974 95.1779 1.27221C97.364 0.454937 99.7192 0 102.183 0C105.017 0 107.707 0.624023 110.155 1.68286C112.433 2.66117 114.152 4.71844 114.66 7.19844C114.764 7.69364 114.841 8.19688 114.885 8.70818H108.25C108.23 8.07208 108.125 7.44403 107.912 6.87637C107.409 5.55987 106.31 4.52922 104.945 4.11857C104.067 3.84883 103.141 3.7039 102.183 3.7039C101.084 3.7039 100.029 3.89714 99.0509 4.24338C97.4324 4.81507 96.1723 6.12351 95.6006 7.74195C95.0491 9.30806 94.7391 11.007 94.7391 12.7623C94.7391 14.2197 94.9685 15.6208 95.3389 16.9574C95.8221 18.6886 97.1224 20.0896 98.7892 20.7217C99.844 21.1203 100.983 21.3538 102.183 21.3538C103.198 21.3538 104.176 21.2008 105.098 20.8988C106.334 20.5083 107.34 19.5985 107.86 18.4188C108.206 17.6418 108.379 16.7762 108.379 15.8623H115.038C114.998 16.6353 114.893 17.4043 114.72 18.1249C114.148 20.4842 112.498 22.4649 110.299 23.3869C107.799 24.4417 105.062 25.0496 102.179 25.0496C99.9447 25.0496 97.7867 24.6994 95.7657 24.0633C92.6858 23.089 90.0166 20.8747 88.9578 17.8512" fill="#404041"/>
</svg>
