<svg width="253" height="50" viewBox="0 0 253 50" fill="none" xmlns="http://www.w3.org/2000/svg">
<path d="M252.171 9.94931H245.912V40.0868H252.171V9.94931ZM229.052 16.7511H229.124L233.249 28.6541H225.181L229.052 16.7511ZM225.506 9.94931L214.797 40.0868H221.418L223.553 33.8639H234.624L236.577 40.0868H243.379L232.778 9.94931H225.506ZM194.79 15.123H200.868C203.582 15.123 207.815 15.8827 207.815 24.7467C207.815 29.7033 206.078 34.877 200.977 34.877H194.826V15.123H194.79ZM188.676 40.0868H201.7C211.613 40.0868 214.255 30.7525 214.255 24.3126C214.255 18.5962 212.12 9.94931 201.954 9.94931H188.676V40.0868ZM160.13 9.94931V29.8842C160.13 38.8929 166.787 40.8828 171.888 40.8828C179.486 40.8828 184.081 37.4095 184.081 29.45V9.94931H177.822V29.848C177.822 33.5021 176.085 35.5644 171.744 35.5644C168.813 35.5644 166.389 33.7554 166.389 29.5586V9.94931H160.13ZM132.163 30.7525C132.163 34.479 134.081 40.8466 145.043 40.8466C147.684 40.8466 156.91 40.0506 156.91 30.9696C156.91 25.5788 153.147 23.9146 149.023 22.8654L141.679 21.0926C140.448 20.8032 138.495 20.2966 138.495 17.945C138.495 15.2315 141.353 14.327 143.777 14.327C149.24 14.327 149.747 17.5108 149.928 18.8856H155.933C155.933 15.1953 153.437 9.11719 144.211 9.11719C134.443 9.11719 132.634 15.0506 132.634 18.3791C132.634 22.9377 135.094 25.4703 139.363 26.5195L145.441 28.0029C148.625 28.7988 150.904 29.3777 150.904 31.7293C150.904 34.877 147.576 35.6367 144.609 35.6367C139.146 35.6367 138.205 32.4529 138.205 30.7525H132.163ZM122.106 15.123H131.187V9.94931H106.729V15.123H115.81V40.0868H122.069V15.123H122.106ZM104.522 9.94931H98.2632V40.0868H104.522V9.94931ZM66.0273 9.94931V40.0868H71.8884V14.9059H71.9608L77.4239 40.0868H83.6106L89.2546 14.9059H89.2907V40.0868H95.1518V9.94931H86.0708L80.7162 33.683H80.6438L75.2169 9.94931H66.0273Z" fill="black"/>
<path d="M10.2754 17.8359L14.3999 24.9633L15.4129 26.7361L28.8716 34.7679L42.2942 26.7361L43.3072 24.9633L47.4317 17.8359L28.8716 26.3019L10.2754 17.8359Z" fill="#ED1C24"/>
<path d="M0 0L5.13748 8.90015L28.8712 19.754L52.5687 8.90015L57.7062 0L28.8712 8.68307L0 0Z" fill="#ED1C24"/>
<path d="M28.8721 40.6295L20.5508 35.6367L28.8721 50L37.1571 35.6367L28.8721 40.6295Z" fill="#ED1C24"/>
</svg>
