<svg width="170" height="50" viewBox="0 0 170 50" fill="none" xmlns="http://www.w3.org/2000/svg">
<path d="M114.519 11.647C113.629 10.9793 112.591 10.3858 111.552 10.2375C110.513 10.1633 111.478 11.1277 111.478 11.1277" fill="white"/>
<path d="M111.479 11.1279C112.22 11.2021 113.111 11.2021 114.149 12.6858C114.817 13.576 114.52 15.4306 114.223 16.3208C115.707 14.5404 115.039 12.1665 114.149 11.4988" fill="white"/>
<path d="M94.9344 14.5407C94.6377 14.3923 97.1599 15.1342 97.3083 17.2855C97.4567 18.7692 97.3825 19.6594 97.3825 19.6594L96.5665 19.0659C96.5665 19.0659 96.5665 18.1015 96.4923 17.1372C96.4181 15.9502 96.4181 15.3567 94.9344 14.5407Z" fill="white"/>
<path d="M72.3831 29.1553C72.4573 31.2324 72.5315 32.1226 73.8668 32.7903C74.9054 33.3838 73.2733 33.5321 73.2733 33.5321C73.2733 33.5321 71.5671 33.4579 72.3831 29.1553Z" fill="white"/>
<path d="M155.246 22.1078L155.172 21.8852L155.098 21.6627L155.024 21.4401L154.95 21.2176L154.876 20.995L154.801 20.7725L154.727 20.6241L154.653 20.4757L154.579 20.3274L154.505 20.179L154.43 20.0306L154.356 19.8823L154.282 19.7339L154.208 19.5855L154.06 19.4372L153.911 19.2888L153.763 19.1404L153.614 18.9921L153.466 18.8437L153.318 18.6953L153.169 18.547L153.021 18.3986L152.873 18.2502L152.724 18.1018L152.576 17.9535L152.427 17.8051L152.279 17.6567L152.131 17.5084L151.982 17.36L151.834 17.2116L151.686 17.0633L151.537 16.9891L151.389 16.9149L151.241 16.8407L151.092 16.7665L150.944 16.6924L150.795 16.6182L150.647 16.544L150.499 16.4698L150.276 16.3214L150.128 16.2472L149.979 16.1731L149.831 16.0989L149.683 16.0247L149.534 15.9505L149.386 15.8763L149.238 15.8021L149.089 15.728H148.941H148.792L139.371 14.541L142.042 27.1523L142.116 27.3748L142.19 27.5974L142.264 27.8199L142.338 28.0425L142.413 28.2651L142.487 28.4876L142.561 28.7102L142.635 28.9327L142.709 29.1553L142.784 29.3778L142.858 29.6004L142.932 29.8229L143.08 29.9713L143.229 30.1197L143.377 30.268L143.525 30.4164L143.674 30.5648L143.822 30.7131L143.97 30.8615L144.119 31.0099L144.267 31.1582L144.416 31.3066L144.564 31.455L144.712 31.6033L144.861 31.7517L145.009 31.9001L145.157 32.0484L145.306 32.1968L145.454 32.3452L145.603 32.4935L145.751 32.6419L145.899 32.7161L146.048 32.7903L146.27 32.8645L146.493 32.9386L146.715 33.0128L146.938 33.087L147.16 33.1612L147.383 33.2354L147.606 33.3096L147.828 33.3837L148.051 33.4579L148.273 33.5321L148.496 33.6063H148.718H148.941H149.163H149.386H149.608H149.831H149.905H149.979H150.128H150.276H150.425H150.573H150.647L158.585 32.6419L155.246 22.1078ZM150.35 31.0099H150.202H150.054H149.905H149.757H149.608H149.46H149.312H149.163H149.015H148.867L148.718 30.9357L148.57 30.8615L148.422 30.7873L148.273 30.7131L148.125 30.6389L147.976 30.5648L147.828 30.4906L147.68 30.4164L147.531 30.3422L147.383 30.268L147.235 30.1938L147.086 30.1197L146.938 30.0455L146.789 29.9713L146.641 29.8971L146.493 29.8229L146.344 29.7487L146.196 29.6745L146.048 29.5262L145.899 29.3778L145.751 29.2294L145.677 29.0811L145.603 28.9327L145.528 28.7843L145.454 28.636L145.38 28.4876L145.306 28.3392L145.232 28.1909L145.157 28.0425L145.083 27.8941L145.009 27.7458L144.935 27.5974L144.861 27.449L144.787 27.3007L144.712 27.1523L144.638 27.0039L144.564 26.8556L144.49 26.7072L144.416 26.5588V26.4105L142.19 16.7665L147.383 17.4342H147.531H147.68H147.828H147.976L148.125 17.5084L148.273 17.5826L148.422 17.6567L148.57 17.7309L148.718 17.8051L148.867 17.8793L149.015 17.9535L149.163 18.0277L149.312 18.1018L149.46 18.176L149.608 18.2502L149.757 18.3244L149.905 18.3986L150.054 18.4728L150.202 18.547L150.35 18.6211L150.499 18.6953L150.647 18.7695L150.721 18.8437L150.795 18.9179L150.87 18.9921L150.944 19.0662L151.018 19.1404L151.092 19.2146L151.166 19.2888L151.241 19.4372L151.315 19.5855L151.389 19.7339L151.463 19.8823L151.537 20.0306L151.611 20.179L151.686 20.3274L151.76 20.4757L151.834 20.6241L151.908 20.7725L151.982 20.9208L152.057 21.0692L152.131 21.2176L152.205 21.3659L152.279 21.5143L152.353 21.6627L152.427 21.811L152.502 21.9594L152.576 22.1078L152.65 22.2562H152.502L154.505 30.5648L150.35 31.0099Z" fill="#636466"/>
<path d="M127.353 23.3687L134.03 13.9473L131.508 13.5764L123.644 24.4815L121.79 12.3153L118.971 12.0186L122.383 36.9444L125.425 36.5735L124.164 27.8939L125.87 25.4459L136.404 35.2381L140.113 34.793L127.353 23.3687Z" fill="#636466"/>
<path d="M49.2367 18.1013V17.8787V17.6561V17.582V17.5078V17.4336V17.3594V17.2852V17.211V17.1369V17.0627V16.9885V16.9143V16.8401V16.7659V16.6918L49.1625 16.6176L49.0883 16.5434L49.0141 16.4692L48.9399 16.395L48.8657 16.3208L48.6432 15.7274L48.569 15.579L48.4948 15.5048L48.4206 15.4306L48.3465 15.3564L48.2723 15.2823L48.1981 15.2081L48.1239 15.1339L48.0497 15.0597L47.9755 14.9855L48.0497 14.8372L47.9755 14.763L47.9013 14.6888V14.6146L47.8272 14.5404L47.753 14.4662L47.6788 14.3921L47.6046 14.3179L47.5304 14.2437L47.4562 14.1695L47.3821 14.0953H47.3079L47.2337 14.0211L47.1595 13.947L47.0853 13.8728L47.0111 13.7986L46.937 13.7244L46.8628 13.6502L46.7886 13.576L46.7144 13.5018L46.6402 13.4277L46.566 13.3535L46.4919 13.2793L46.4177 13.5018L46.3435 13.4277L46.2693 13.3535H46.1951H46.1209H46.0468H45.9726H45.8984H45.8242H45.75H45.6758H45.6016H45.5275H45.4533H45.3791H45.3049H45.2307H45.1565H45.0824H45.0082H44.934H44.8598H44.7856H44.7114H44.6373H44.5631H44.4889H44.2663H44.0438H43.8212L36.4028 14.3179L33.3613 29.1547L33.2871 29.3772V29.5998V29.8223V30.0449V30.2674V30.49V30.7125V30.9351V31.1576V31.3802V31.6027V31.8253L33.3613 32.0478L33.4355 32.2704L33.5097 32.4929L33.5838 32.7155L33.658 32.8639L33.7322 33.0122L33.8064 33.1606L33.8806 33.2348L33.9548 33.309L34.0289 33.3832L34.1031 33.4573L34.1773 33.5315L34.2515 33.6057L34.3257 33.6799L34.3999 33.7541L34.4741 33.8283L34.5482 33.9024L34.6224 33.9766L34.6966 34.0508L34.7708 34.1992L34.845 34.3475L34.9933 34.4959L35.1417 34.6443L35.2901 34.7926L35.4384 34.941L35.5868 35.0894L35.7352 35.1636L35.8835 35.2378L36.0319 35.3119L36.1803 35.3861L36.3287 35.4603L36.477 35.5345L36.6254 35.6087L36.7738 35.6829L36.9221 35.757L37.0705 35.8312L37.2189 35.9054L37.3672 35.9796L37.5156 36.0538L37.664 36.128L37.8123 36.2021H37.9607H38.1091H38.3316L47.3079 37.2407L49.9785 19.9559V19.7333V19.5107V19.2882V19.0656V18.8431L49.2367 18.1013ZM46.6402 18.4722V18.6205V18.7689V18.9173V19.0656L44.0438 34.125L38.7025 33.5315H38.6284H38.5542H38.48H38.4058H38.3316H38.2574H38.1833H38.1091L38.0349 33.4573L37.9607 33.3832L37.5156 33.1606L37.4414 33.0864L37.3672 33.0122L37.293 32.938L37.2189 32.8639L37.1447 32.7897L37.0705 32.7155H36.9963H36.9221H36.8479L36.7738 32.6413H36.6996L36.6254 32.5671L36.5512 32.4929V32.4188L36.477 32.3446L36.4028 32.2704L36.3287 32.1962L36.2545 32.122L36.1803 32.0478V31.9737V31.8995V31.8253V31.7511V31.6769V31.6027V31.5286V31.4544V31.3802V31.306V31.2318V31.1576V31.0834V31.0093V30.9351V30.8609V30.7867V30.6383V30.49V30.3416V30.1932V30.0449V29.8965V29.7481V29.5998V29.4514V29.303V29.1547V29.0063V28.8579V28.7096V28.5612V28.4128L38.3316 15.579L43.1536 14.9855H43.2278H43.3019H43.4503H43.5987H43.747H43.8954H44.0438H44.118H44.1922H44.2663H44.3405H44.4147H44.4889H44.5631H44.6373H44.7114H44.7856H44.8598H44.934H45.0082H45.0824H45.1565H45.2307H45.3049H45.3791H45.4533H45.5275H45.6016H45.6758H45.75H45.8242H45.8984H45.9726H46.0468H46.1209H46.1951H46.2693H46.3435H46.4177L46.4919 15.0597L46.566 15.1339L46.6402 15.2081L46.7144 15.2823L46.7886 15.3564L46.8628 15.4306L46.937 15.5048L47.0111 15.579L47.0853 15.6532L47.1595 15.7274L47.2337 15.8016L47.3079 15.8757V15.9499V16.0241V16.0983V16.1725V16.2467V16.3208V16.395V16.4692V16.5434V16.6176V16.6918V16.7659V16.8401V16.9143V16.9885V17.0627V17.1369V17.211V17.2852V17.3594V17.5078V17.6561V17.8045V17.9529V18.1013V18.2496L46.6402 18.4722Z" fill="#636466"/>
<path d="M31.2848 15.3566V15.2824V15.2082V15.134V15.0598V14.9856V14.9114L31.2106 14.8373V14.7631V14.6889V14.6147H31.1364V14.5405V14.4663H31.0623V14.3922L30.9881 14.318V14.2438L30.9139 14.1696L30.8397 14.0954V14.0212H30.7655V13.9471H30.6913L30.6172 13.8729L30.543 13.7987H30.4688L30.3946 13.7245H30.3204L30.2462 13.6503H30.1721L30.0979 13.5761H30.0237H29.9495V13.502H29.8753H29.8011H29.7269H29.6528H29.5786H29.5044H29.4302H29.356H29.2818H29.2077H29.1335H29.0593H28.9851H28.9109L28.8367 13.5761H28.7626H28.6884L28.6142 13.6503H28.54L28.4658 13.7245H28.3916L28.3175 13.7987L28.2433 13.8729H28.1691L28.0949 13.9471L28.0207 14.0212L27.9465 14.0954H27.8723V14.1696H27.7982L27.724 14.2438L16.5222 25.9649L10.6617 18.1014V18.0272H10.5875V17.953H10.5133V17.8788H10.4391V17.8046H10.3649V17.7304H10.2907V17.6563H10.2166L10.1424 17.5821H10.0682V17.5079H9.99401H9.91983L9.84565 17.4337H9.77146H9.69728L9.62309 17.3595H9.54891H9.47473H9.40054H9.32636H9.25217H9.17799H9.10381H9.02962H8.95544H8.88125H8.80707L8.73289 17.4337H8.6587H8.58452H8.51033L8.43615 17.5079H8.36197L8.28778 17.5821H8.2136L8.13941 17.6563H8.06523L7.99105 17.7304H7.91686V17.8046H7.84268L7.7685 17.8788H7.69431V17.953L7.62013 18.0272H7.54594V18.1014H7.47176V18.1755H7.39758V18.2497L7.32339 18.3239L7.24921 18.3981L7.17502 18.4723V18.5465H7.10084V18.6206L7.02666 18.6948V18.769L6.95247 18.8432V18.9174L6.87829 18.9916V19.0658V19.1399H6.8041V19.2141L1.38867 36.6474L2.94654 37.0183L4.43022 37.3892L9.32636 19.8818L16.2997 29.5999L28.4658 16.5435L22.3086 41.2468L25.721 40.4307L31.2848 15.95V15.8758V15.8017V15.7275V15.6533V15.5791V15.5049V15.4307V15.3566Z" fill="#636466"/>
<path d="M168.376 36.0539V35.9797L161.255 13.502V13.4278L161.181 13.3536V13.2794H161.106V13.2052H161.032L145.008 9.34767L135.587 7.27052L127.872 5.71265L121.789 4.59989L115.706 3.56132L109.771 2.74529L105.32 2.22601L100.869 1.7809L96.4921 1.40998L92.1894 1.18743L89.2962 1.11325L84.9936 1.03906H81.4327L77.9461 1.18743L74.3853 1.3358L69.1924 1.70672L64.0737 2.15182L58.955 2.74529L53.9847 3.48713L49.0885 4.22897L42.7087 5.34173L36.5514 6.52868L29.133 8.16072L18.228 10.7572L9.02919 12.9827L8.80664 13.7245L18.8957 11.4248L26.9075 9.71859L34.1776 8.30909L40.409 7.27052L46.863 6.30613L53.6138 5.41592L58.8808 4.82245L64.2221 4.37734L69.7117 4.00642L75.3497 3.70969L79.2072 3.56132L84.9936 3.48713L89.2221 3.56132L93.5247 3.6355L99.3111 3.93224L105.097 4.37734L110.958 4.89663L116.893 5.56429L122.902 6.38031L128.985 7.27052L135.068 8.30909L142.783 9.79277L150.646 11.499L155.394 12.5376L160.587 13.7987L166.67 35.3121L159.919 37.0183L153.985 38.2794L147.382 39.6147L141.522 40.7275L135.216 41.7661L128.54 42.7305L121.418 43.5465L113.851 44.2883L107.991 44.8076L101.833 45.1785L95.5277 45.4011L91.225 45.5494L84.6227 45.6236L78.6879 45.5494L72.7532 45.4011L66.8927 45.1043L59.771 44.5851L52.7236 43.9916L45.7503 43.2497L38.8512 42.4337L33.2132 41.6177L25.7206 40.4308L22.3081 41.2468L46.1954 45.3269L55.2458 46.588L61.6256 47.404L66.5959 47.9975L71.5663 48.4426L78.8363 48.8135L84.6227 48.9619L89.2221 48.8877L93.6731 48.8135L100.201 48.5168L106.581 47.9975L112.738 47.404L118.673 46.7364L124.459 45.9204L129.949 45.0302L136.922 43.769L143.376 42.4337L150.795 40.8017L159.919 38.5762L168.154 36.4248V36.3506H168.228H168.302V36.2765H168.376V36.2023V36.1281V36.0539Z" fill="#636466"/>
<path d="M67.7834 11.0547V10.9805L56.0624 12.39L51.6113 37.4641L54.6529 37.8351L55.3947 31.4552H56.4333H56.73H57.0268L57.3235 31.3811L57.6202 31.3069L57.917 31.2327L58.2137 31.1585L58.5104 31.0843L58.8072 31.0101L59.1039 30.936L59.4006 30.8618L59.6974 30.7134L59.9941 30.565L60.5134 30.4167L60.8101 30.2683L61.1069 30.1199L61.4036 29.9716L61.7003 29.8232L61.9971 29.6748L62.2938 29.4523L62.5906 29.2297L62.8131 29.0072L63.0357 28.7846L63.2582 28.5621L63.4808 28.3395L63.7033 28.117L63.9259 27.8944L64.1484 27.6719L64.371 27.4493L64.5935 27.2268L64.8161 26.93L65.0386 26.6333L65.2612 26.3366L65.4095 26.0398L65.5579 25.7431L65.7063 25.4463L65.8546 25.1496L66.003 24.8529L66.1514 24.5561L66.2998 24.2594L66.4481 23.9627L66.5965 23.6659L66.6707 23.3692L66.7449 23.0725L66.819 22.7757L66.8932 22.4048L66.9674 22.0339L67.0416 21.663L67.1158 21.292V20.9211L67.9318 11.203L67.7834 11.0547ZM64.2968 20.9953V21.2179V21.4404V21.663L64.2226 21.8855L64.1484 22.1081L64.0742 22.3306L64 22.5532L63.9259 22.7757L63.8517 22.9983L63.7775 23.2208L63.7033 23.4434L63.6291 23.6659L63.5549 23.8885L63.4808 24.111L63.4066 24.3336L63.2582 24.5561L63.1098 24.7787L62.9615 25.0012L62.8131 25.2238L62.6647 25.4463L62.5164 25.6689L62.368 25.8914L62.2196 26.0398L62.0713 26.1882L61.9229 26.3366L61.7745 26.4849L61.6262 26.6333L61.4778 26.7817L61.3294 26.93L61.1811 27.0784L60.9585 27.2268L60.736 27.3751L60.5134 27.5235L60.2909 27.6719L60.0683 27.8202L59.8457 27.9686L59.6232 28.0428L59.4006 28.117L59.1781 28.1912L58.9555 28.2653L58.733 28.3395L58.5104 28.4137L58.2879 28.4879L58.0653 28.5621L57.8428 28.6363L57.6202 28.7104L57.3977 28.7846L57.1751 28.8588H56.9526L55.7656 29.0072L57.546 13.0576L65.187 12.0932L64.2968 20.9953Z" fill="#636466"/>
<path d="M116.967 34.7929V34.7187V34.6445V34.5703L116.892 34.4962V34.422V34.3478V34.2736V34.1994V34.1252L116.818 34.0511V33.9769V33.9027L116.744 33.8285V33.7543V33.6801L116.67 33.606V33.5318L116.596 33.4576V33.3834L116.522 33.3092V33.235L116.447 33.1608V33.0867H116.373V33.0125L116.299 32.9383L116.225 32.8641V32.7899L116.151 32.7157L116.076 32.6416L116.002 32.5674L115.928 32.4932L115.854 32.419H115.78V32.3448L108.435 25.8908H108.361V25.8166L108.287 25.7425H108.213V25.6683L108.139 25.5941L108.065 25.5199V25.4457H107.99V25.3715L107.916 25.2973V25.2232V25.149L107.842 25.0748V25.0006L107.768 24.9264V24.8522V24.7781V24.7039L107.694 24.6297V24.5555V24.4813V24.4071V24.333V24.2588V24.1846V24.1104V24.0362V23.962V23.8879V23.8137V23.7395L107.768 23.6653V23.5911V23.5169H107.842V23.4427V23.3686L107.916 23.2944V23.2202H107.99V23.146V23.0718H108.065V22.9976H108.139V22.9235L113.925 16.692L113.999 16.6178L114.073 16.5436L114.148 16.4695V16.3953L114.222 16.3211L114.296 16.2469V16.1727L114.37 16.0985V16.0244L114.444 15.9502V15.876L114.519 15.8018V15.7276L114.593 15.6534V15.5792V15.5051V15.4309L114.667 15.3567V15.2825V15.2083V15.1341V15.06V14.9858L114.741 14.9116V14.8374V14.7632V14.689V14.6149V14.5407V14.4665V14.3923L114.667 14.3181V14.2439V14.1698V14.0956V14.0214V13.9472V13.873L114.593 13.7988V13.7246V13.6505V13.5763L114.519 13.5021V13.4279V13.3537L114.444 13.2795V13.2054L114.37 13.1312V13.057V12.9828H114.296V12.9086L114.222 12.8344V12.7603L114.148 12.6861V12.6119L114.073 12.5377H113.999V12.4635L113.925 12.3893V12.3152L113.851 12.241H113.777V12.1668L113.703 12.0926H113.628V12.0184L113.554 11.9442H113.48L113.406 11.8701V11.7959H113.332L113.257 11.7217H113.183V11.6475H113.109L113.035 11.5733H112.961L112.887 11.4991L112.812 11.4249H112.738H112.664L112.59 11.3508H112.516H112.441V11.2766H112.367H112.293H112.219L112.145 11.2024H112.071H111.996H111.922H111.848L99.9785 9.64453L100.053 11.4991L111.848 13.057H111.922H111.996H112.071H112.145V13.1312H112.219L112.293 13.2054L112.367 13.2795H112.441V13.3537L112.516 13.4279V13.5021H112.59V13.5763H112.664V13.6505V13.7246V13.7988H112.738V13.873V13.9472V14.0214V14.0956V14.1698V14.2439V14.3181V14.3923L112.664 14.4665V14.5407L112.59 14.6149V14.689H112.516L109.474 17.9531L106.433 21.2172L106.284 21.3656L106.136 21.514L106.062 21.6623L105.987 21.7365L105.839 21.8849L105.765 21.9591L105.691 22.1074L105.617 22.1816L105.542 22.33L105.468 22.4042L105.394 22.5525L105.32 22.7009L105.246 22.7751V22.9235L105.171 22.9976V23.0718L105.097 23.146V23.2202V23.2944V23.3686H105.023V23.4427V23.5169V23.5911V23.6653L104.949 23.7395V23.8137V23.8879V23.962V24.0362V24.1104V24.4071L105.023 24.6297V24.7781V24.9264V25.0748L105.097 25.2232V25.3715V25.5199L105.171 25.6683V25.7425L105.246 25.8166V25.8908V25.965L105.32 26.0392V26.1134L105.394 26.1876V26.2617V26.3359L105.468 26.4101V26.4843H105.542V26.5585L105.617 26.6327V26.7068L105.691 26.781L105.765 26.8552L105.839 26.9294L105.913 27.0778L106.062 27.2261L106.21 27.3745L106.284 27.4487L106.358 27.5971L113.109 33.6801H113.183V33.7543L113.257 33.8285L113.332 33.9027V33.9769H113.406V34.0511L113.48 34.1252V34.1994V34.2736H113.554V34.3478V34.422V34.4962V34.5703V34.6445V34.7187V34.7929V34.8671L113.406 35.4606L101.388 36.87L101.462 39.3923L114.37 37.9086L114.444 37.8344H114.519H114.593H114.667H114.741H114.815L114.889 37.7603H114.964H115.038V37.6861H115.112H115.186L115.26 37.6119H115.335H115.409V37.5377H115.483L115.557 37.4635H115.631V37.3893H115.706L115.78 37.3152H115.854V37.241H115.928L116.002 37.1668L116.076 37.0926V37.0184H116.151L116.225 36.9442L116.299 36.87V36.7959L116.373 36.7217L116.447 36.6475V36.5733H116.522V36.4991L116.596 36.4249V36.3508L116.67 36.2766V36.2024L116.744 36.1282V36.054V35.9798L116.818 35.9057V35.8315V35.7573L116.892 35.6831V35.6089V35.5347V35.4606V35.3864L116.967 35.3122V35.238V35.1638V35.0896V35.0154V34.9413V34.8671V34.7929Z" fill="#636466"/>
<path d="M99.6816 31.677V31.6028L98.9398 17.2853V17.2112V17.137V17.0628V16.9886V16.9144L98.8656 16.8402V16.7661V16.6919V16.6177L98.7914 16.5435V16.4693V16.3951L98.7172 16.321V16.2468V16.1726L98.643 16.0984V16.0242L98.5689 15.95V15.8759H98.4947V15.8017V15.7275H98.4205V15.6533L98.3463 15.5791L98.2721 15.5049V15.4307H98.1979V15.3566H98.1237V15.2824L98.0496 15.2082L97.9754 15.134L97.9012 15.0598H97.827V14.9856H97.7528V14.9115H97.6786L97.6045 14.8373H97.5303L86.4769 7.71561L96.4175 15.5049L96.4917 15.5791L96.5659 15.6533H96.6401V15.7275H96.7143V15.8017H96.7884V15.8759L96.8626 15.95L96.9368 16.0242V16.0984H97.011V16.1726V16.2468H97.0852V16.321L97.1593 16.3951V16.4693V16.5435L97.2335 16.6177V16.6919V16.7661L97.3077 16.8402V16.9886V17.0628V17.137V17.2112L97.9012 31.4545V31.5287V31.6028V31.677V31.7512V31.8254V31.8996L97.827 31.9738V32.048V32.1221V32.1963L97.7528 32.2705V32.3447V32.4189H97.6786V32.4931L97.6045 32.5672V32.6414L97.5303 32.7156L97.4561 32.7898V32.864H97.3819V32.9382H97.3077V33.0123H97.2335L97.1593 33.0865L97.0852 33.1607L86.0318 39.9115H85.9576V39.9856H85.8834L85.8092 40.0598H85.735H85.6608H85.5867V40.134H85.5125H85.4383H85.3641H85.2899V40.2082H85.2157H85.1415H85.0674H84.9932H84.919H84.8448L84.7706 40.134H84.6965H84.6223H84.5481L84.4739 40.0598H84.3997H84.3255V39.9856H84.2513H84.1772V39.9115H84.103L73.0496 33.3091V33.2349H72.9754L72.9012 33.1607L72.827 33.0865L72.7528 33.0123L72.6786 32.9382V32.864H72.6045V32.7898H72.5303V32.7156V32.6414H72.4561V32.5672V32.4931H72.3819V32.4189V32.3447L72.3077 32.2705V32.1963V32.1221V32.048V31.9738L72.2335 31.8996V31.8254V31.7512V31.677V31.6028L72.9012 17.3595V17.2853V17.2112V17.137V17.0628L72.9754 16.9886V16.9144V16.8402V16.7661L73.0496 16.6919V16.5435H73.1237V16.4693V16.3951L73.1979 16.321L73.2721 16.2468V16.1726H73.3463V16.0984L73.4205 16.0242V15.95H73.4947V15.8759H73.5688V15.8017H73.643L73.7172 15.7275V15.6533H73.7914H73.8656L84.3255 8.45745H84.3997V8.38327H84.4739L84.5481 8.30908H84.6223H84.6965V8.2349H84.7706H84.8448H84.919H84.9932H85.0674V8.16072H85.1415H85.2157V8.2349H85.2899H85.3641H85.4383H85.5125H85.5867V8.30908H85.6608H85.735L85.8092 8.38327H85.8834V8.45745H85.9576L96.4175 15.5049L86.4769 7.71561L86.4027 7.64143H86.3285L86.2543 7.56724H86.1801V7.49306H86.1059H86.0318H85.9576V7.41888H85.8834H85.8092L85.735 7.34469H85.6608H85.5867H85.5125H85.4383L85.3641 7.27051H85.2899H85.2157H85.1415H85.0674H84.9932L84.919 7.34469H84.8448H84.7706H84.6965H84.6223H84.5481L84.4739 7.41888H84.3997H84.3255L84.2513 7.49306H84.1772L84.103 7.56724H84.0288L83.9546 7.64143H83.8804L83.8062 7.71561L72.6786 14.9115V14.9856H72.6045L72.5303 15.0598L72.4561 15.134H72.3819V15.2082H72.3077V15.2824H72.2335V15.3566H72.1594L72.0852 15.4307L72.011 15.5049V15.5791H71.9368V15.6533L71.8626 15.7275L71.7884 15.8017V15.8759L71.7143 15.95V16.0242H71.6401V16.0984V16.1726H71.5659V16.2468V16.321L71.4917 16.3951V16.4693L71.4175 16.5435V16.6177V16.6919L71.3433 16.7661V16.8402V16.9144V16.9886L71.2691 17.0628V17.137V17.2112V17.2853V17.3595V17.4337L70.4531 31.7512V31.8254V31.8996V31.9738V32.048V32.1221V32.1963V32.2705L70.5273 32.3447V32.4189V32.4931V32.5672V32.6414L70.6015 32.7156V32.7898V32.864V32.9382L70.6757 33.0123V33.0865L70.7499 33.1607V33.2349L70.824 33.3091V33.3833H70.8982V33.4574V33.5316H70.9724V33.6058L71.0466 33.68L71.1208 33.7542L71.195 33.8284V33.9026H71.2691V33.9767H71.3433L71.4175 34.0509L71.4917 34.1251L71.5659 34.1993H71.6401V34.2735H71.7143L71.7884 34.3477L83.6579 41.4693H83.7321L83.8062 41.5435H83.8804L83.9546 41.6177H84.0288L84.103 41.6919H84.1772H84.2513H84.3255L84.3997 41.7661H84.4739H84.5481H84.6223H84.6965H84.7706L84.8448 41.8402H84.919H84.9932H85.0674H85.1415H85.2157H85.2899L85.3641 41.7661H85.4383H85.5125H85.5867H85.6608H85.735V41.6919H85.8092H85.8834H85.9576L86.0318 41.6177H86.1059H86.1801L86.2543 41.5435H86.3285V41.4693H86.4027H86.4769L86.5511 41.3951L98.4205 34.1993V34.1251H98.4947L98.5689 34.0509L98.643 33.9767H98.7172V33.9026H98.7914V33.8284H98.8656V33.7542H98.9398L99.0139 33.68L99.0881 33.6058V33.5316L99.1623 33.4574V33.3833H99.2365V33.3091L99.3107 33.2349V33.1607L99.3849 33.0865L99.4591 33.0123V32.9382V32.864L99.5332 32.7898V32.7156V32.6414L99.6074 32.5672V32.4931V32.4189V32.3447L99.6816 32.2705V32.1963V32.1221V32.048V31.9738V31.8996V31.8254V31.7512V31.677Z" fill="#636466"/>
<path d="M76.9802 17.359L76.3867 17.2106L80.3185 16.4688L80.4668 16.6913L76.9802 17.359Z" fill="white"/>
<path d="M74.4568 28.635L73.9375 29.2285L75.5696 25.0742H75.7921L74.4568 28.635Z" fill="white"/>
<path d="M75.5697 25.0742L74.3086 20.9199L74.6795 21.365L75.7923 25.0742H75.5697Z" fill="white"/>
<path d="M83.1365 23.9614H82.2463L81.5045 24.0356L80.911 24.1098H80.3175L79.5757 24.2581L78.9822 24.3323L78.3888 24.4065L77.8695 24.4807L74.3828 20.7715L74.7537 21.4391L77.7953 24.7774L78.4629 24.6291L78.9822 24.5549L79.6499 24.4807L80.3917 24.4065L80.9852 24.3323H81.5045L82.3205 24.2581L83.5074 24.1839L83.1365 23.9614Z" fill="white"/>
<path d="M80.9841 18.8431L76.3105 17.4336L76.9782 17.3594L81.2067 18.6205L80.9841 18.8431Z" fill="#003D77"/>
<path d="M83.5066 24.1839L82.9873 23.1453L82.6906 22.4035L82.3939 21.81L82.0971 21.2166L81.8746 20.5489L81.652 19.8812L81.4295 19.2878L81.2069 18.6201L80.9844 18.8427L81.2069 19.4361L81.3553 19.9554L81.652 20.6231L81.8746 21.2907L82.1713 21.8842L82.4681 22.5519L82.7648 23.2195L83.1357 23.9614" fill="white"/>
<path d="M83.5066 24.1839L82.9873 23.1453L82.6906 22.4035L82.3939 21.81L82.0971 21.2166L81.8746 20.5489L81.652 19.8812L81.4295 19.2878L81.2069 18.6201L80.9844 18.8427L81.2069 19.4361L81.3553 19.9554L81.652 20.6231L81.8746 21.2907L82.1713 21.8842L82.4681 22.5519L82.7648 23.2195L83.1357 23.9614" stroke="#034EA2" stroke-width="0.0589547" stroke-linecap="round" stroke-linejoin="round"/>
<path d="M89.5905 33.5311L86.8457 36.9436L87.0683 36.276L89.4421 33.3086L89.5905 33.5311Z" fill="#003D77"/>
<path d="M86.8457 30.1933L87.0683 30.0449L87.4392 30.49L87.2166 30.7126L86.8457 30.1933Z" fill="white"/>
<path d="M87.2168 30.7118L87.4394 30.4893L87.8103 30.9344L87.5877 31.0827L87.2168 30.7118Z" fill="white"/>
<path d="M86.4004 29.5253L86.6229 29.377L87.0681 30.0446L86.8455 30.193L86.4004 29.5253Z" fill="white"/>
<path d="M87.5879 31.0829L87.8104 30.9346L88.2555 31.4539L87.9588 31.528L87.5879 31.0829Z" fill="white"/>
<path d="M87.0682 36.2761L86.623 36.9437L87.9584 31.5283L88.2551 31.4541L87.0682 36.2761Z" fill="white"/>
<path d="M86.1035 29.08L86.3261 28.9316L86.6228 29.3767L86.4002 29.5251L86.1035 29.08Z" fill="white"/>
<path d="M85.9453 28.4993L85.7578 28.6191L86.0376 29.0566L86.2251 28.9367L85.9453 28.4993Z" fill="white"/>
<path d="M85.5779 27.8145L85.3887 27.9316L85.7791 28.5624L85.9683 28.4453L85.5779 27.8145Z" fill="white"/>
<path d="M84.8418 27.0769V26.5576L85.5836 27.8187L85.3611 27.9671L84.8418 27.0769Z" fill="white"/>
<path d="M84.7672 22.9233V23.4426L83.9512 22.0331L84.1737 21.8848L84.7672 22.9233Z" fill="white"/>
<path d="M84.1755 21.8844L83.9529 22.0328L83.5078 21.2909L83.6562 21.1426L84.1755 21.8844Z" fill="white"/>
<path d="M83.6541 21.1424L83.5058 21.2908L83.2832 20.9199L83.4316 20.7715L83.6541 21.1424Z" fill="white"/>
<path d="M83.4334 20.7713L83.2851 20.9197L83.0625 20.5488L83.2109 20.4746L83.4334 20.7713Z" fill="white"/>
<path d="M83.2106 20.4743L83.0623 20.5484L82.543 19.8808L82.7655 19.7324L83.2106 20.4743Z" fill="white"/>
<path d="M82.7653 19.7331L82.5428 19.8815L82.1719 19.288L82.3202 19.1396L82.7653 19.7331Z" fill="white"/>
<path d="M82.3201 19.1395L82.1717 19.2878L81.875 18.9169L82.0976 18.7686L82.3201 19.1395Z" fill="white"/>
<path d="M82.0974 18.7684L81.8748 18.9167L81.5039 18.4716L81.8006 18.3975L82.0974 18.7684Z" fill="white"/>
<path d="M93.0764 32.6406L93.8183 32.7148L89.5898 33.5308L89.4414 33.3083L93.0764 32.6406Z" fill="#003D77"/>
<path d="M88.7753 31.1572L93.8198 32.5667L93.078 32.6409L88.627 31.3798L88.7753 31.1572Z" fill="white"/>
<path d="M82.6908 13.7975L83.136 13.0557L81.8006 18.3969L81.5039 18.4711L82.6908 13.7975Z" fill="#003D77"/>
<path d="M91.3706 25.2968L91.0738 25.371L90.5546 25.4452L89.9611 25.5194L89.2934 25.5936L88.7 25.6678H88.1065L87.3646 25.7419L86.1035 25.8161L86.5486 26.7063L86.8454 27.2998L87.2163 28.1158L87.5872 28.7835L87.8097 29.4511L88.1065 29.9704L88.329 30.6381L88.6258 31.3799L88.7741 31.1574L88.5516 30.5639L88.329 29.8962L88.0323 29.3028L87.8097 28.7093L87.4388 27.9675L87.0679 27.2256L86.7712 26.6322L86.4744 26.0387L87.3646 25.9645H88.1065L88.7 25.8903L89.2934 25.8161L89.9611 25.7419L90.5546 25.6678L91.148 25.5936L91.4448 25.5194H91.7415L91.8899 25.2227L91.3706 25.2968Z" fill="#003D77"/>
<path d="M95.1546 28.4868L95.5256 29.2286L91.7422 25.5194L91.8906 25.2227L95.1546 28.4868Z" fill="#003D77"/>
<path d="M88.328 19.2878L88.1055 19.2136L88.328 18.6201L88.4764 18.8427L88.328 19.2878Z" fill="#003D77"/>
<path d="M94.0409 24.9258L95.673 29.0801L95.1537 28.4866L93.8184 24.9258H94.0409Z" fill="#003D77"/>
<path d="M86.7714 13.5017L86.6973 12.9824L89.2937 16.3949L89.1453 16.6174L86.7714 13.5017Z" fill="white"/>
<path d="M86.8447 13.2049L86.6222 12.9082L86.548 13.0566L87.8091 18.2494L87.4382 18.7687L86.9931 19.288L86.6964 19.8073L86.3254 20.4008L85.8803 21.0684L85.4352 21.8103L85.1385 22.3296L84.7676 22.923V23.4423L85.3611 22.4779L85.6578 21.9586L86.1029 21.1426L86.548 20.5492L86.9189 19.9557L87.2157 19.4364L87.5866 18.9171L88.0317 18.3236L86.8447 13.2049Z" fill="white"/>
<path d="M94.8569 21.365L95.302 20.7715L94.0409 24.9258H93.8184L94.8569 21.365Z" fill="#003D77"/>
<path d="M91.6673 24.4806L91.148 24.4064L90.5545 24.3322L89.961 24.2581L89.2934 24.1839L88.6257 24.1097L87.8839 24.0355L87.2162 23.9613H86.4744L86.0293 24.1839L87.1421 24.2581H87.8839L88.5516 24.3322L89.2934 24.4064L89.8869 24.4806L90.5545 24.5548L91.0738 24.629L91.7415 24.7774L94.8572 21.3649L95.1539 20.623L91.6673 24.4806Z" fill="white"/>
<path d="M89.2929 16.3945L93.2988 17.1364L92.6312 17.2847L89.1445 16.6171L89.2929 16.3945Z" fill="white"/>
<path d="M93.2993 17.2851V17.2109H93.2252L92.6317 17.2851L88.329 18.6204L88.1065 19.2139L87.9581 19.7332L87.7355 20.4008L87.4388 21.1427L87.2162 21.5878L86.9937 22.1071L86.697 22.8489L86.1777 23.9617L86.0293 24.1842" stroke="#003D77" stroke-width="0.1179" stroke-linecap="round" stroke-linejoin="round"/>
<path d="M86.4744 23.9614L86.0293 24.1839L86.697 22.8486L86.9195 22.997L86.4744 23.9614Z" fill="#003D77"/>
<path d="M86.9198 22.9967L86.6973 22.8483L86.994 22.1064L87.2166 22.1806L86.9198 22.9967Z" fill="#003D77"/>
<path d="M87.2544 21.6204L87.043 22.0947L87.2462 22.1853L87.4576 21.711L87.2544 21.6204Z" fill="#003D77"/>
<path d="M87.4394 21.736L87.2168 21.5877L87.4394 21.1426L87.6619 21.2168L87.4394 21.736Z" fill="#003D77"/>
<path d="M87.7561 20.3718L87.4492 21.1279L87.6554 21.2116L87.9623 20.4555L87.7561 20.3718Z" fill="#003D77"/>
<path d="M87.9569 20.4743L87.7344 20.4001L87.9569 19.7324L88.1795 19.8066L87.9569 20.4743Z" fill="#003D77"/>
<path d="M88.1815 19.8073L87.959 19.7332L88.1074 19.2139L88.3299 19.2881L88.1815 19.8073Z" fill="#003D77"/>
<path d="M92.6328 17.2852L93.3746 17.3593L88.4784 18.843L88.3301 18.6205L92.6328 17.2852Z" fill="#003D77"/>
<path d="M80.0195 33.6051L75.791 32.8632L76.4587 32.7148L80.1679 33.3825L80.0195 33.6051Z" fill="#003D77"/>
<path d="M82.5418 36.276L82.7643 37.0178L80.0195 33.6054L80.1679 33.3828L82.5418 36.276Z" fill="#003D77"/>
<path d="M76.4606 32.7151L75.7188 32.6409L80.9116 31.1572L81.1342 31.3798L76.4606 32.7151Z" fill="white"/>
<path d="M83.1357 26.039L82.5422 27.1517L82.2455 27.9677L81.8746 28.7838L81.5036 29.5998L81.2069 30.3416L81.0585 30.7126L80.9102 31.1577L81.1327 31.3802L81.2811 30.7867L81.4294 30.4158L81.7262 29.7482L82.0971 28.858L82.468 28.0419L82.8389 27.3001L83.5066 25.8164L83.1357 26.039Z" fill="white"/>
<path d="M82.3945 25.7419L81.7269 25.6678H80.985L80.3174 25.5936L79.9465 25.5194H79.5755L78.9821 25.371L78.4628 25.2968L77.7951 25.2227L74.4569 28.6351L74.0859 29.377L77.9435 25.4452L78.3886 25.5936L78.9079 25.6678L79.5014 25.7419L79.8723 25.8161H80.3174L80.985 25.8903L81.7269 25.9645H82.3945L83.1364 26.0387L83.5073 25.8161L82.3945 25.7419Z" fill="#003D77"/>
<path d="M84.8421 26.5576L84.1745 27.6704L83.7294 28.2638L83.3584 28.9315L82.9875 29.4508L82.6166 30.0443L82.1715 30.5636L81.8006 31.0828L81.3555 31.6763L82.5424 36.2757L82.9133 36.9434L81.6522 31.6763L82.0231 31.2312L82.394 30.7119L82.8391 30.1926L83.2101 29.5992L83.581 29.0057L83.9519 28.4122L84.397 27.7446L84.8421 27.0769V26.5576Z" fill="#003D77"/>
<path d="M75.7188 32.6416L76.4606 32.7158H75.7929L75.7188 32.6416Z" fill="white"/>
<path d="M88.3275 30.6376L88.1049 29.97L87.8082 29.4507L87.5856 28.783L87.2147 28.1154L86.8438 27.2993L86.5471 26.7059L86.102 25.8157L87.3631 25.7415L88.1049 25.6673H88.6984L89.2919 25.5931L89.9595 25.5189L90.553 25.4447L91.0723 25.3706L91.369 25.2964L91.8883 25.2222L95.1524 28.4863L93.8171 24.9254L94.8557 21.3646L91.7399 24.7771L91.0723 24.6287L90.553 24.5545L89.8853 24.4803L89.2919 24.4062L88.55 24.332L87.8824 24.2578H87.1405L86.0278 24.1836L86.6954 22.8483L86.9922 22.1065L87.2147 21.5872L87.4373 21.1421L87.734 20.4002L87.9566 19.7326L88.1049 19.2133L88.3275 18.6198L92.6302 17.2845L89.1435 16.6168L86.918 13.7979L88.0307 18.3231L87.5856 18.9165L87.2147 19.4358L86.918 19.9551L86.5471 20.5486L86.102 21.1421L85.6569 21.9581L85.3601 22.4774L84.7666 23.4418L83.9506 22.0323L83.5055 21.2904L83.283 20.9195L83.0604 20.5486L82.5411 19.8809L82.1702 19.2875L81.8735 18.9165L81.5026 18.4714L82.6895 13.7979L80.464 16.691L76.9773 17.3587L81.2058 18.6198L81.4284 19.2875L81.6509 19.8809L81.8735 20.5486L82.096 21.2162L82.3928 21.8097L82.6895 22.4032L82.9862 23.145L83.5055 24.1836L82.3186 24.2578L81.5026 24.332H80.9833L80.3898 24.4062L79.648 24.4803L78.9803 24.5545L78.461 24.6287L77.7934 24.7771L74.7518 21.4388L75.7904 25.0738L74.4551 28.6346L77.7934 25.2222L78.461 25.2964L78.9803 25.3706L79.5738 25.5189H79.9447L80.3156 25.5931L80.9833 25.6673H81.7251L82.3928 25.7415L83.5055 25.8157L82.8379 27.2993L82.4669 28.0412L82.096 28.8572L81.7251 29.7474L81.4284 30.4151L81.28 30.786L81.1316 31.3795L76.458 32.7148L80.1672 33.3824L82.5411 36.2756L81.3542 31.6762L81.7993 31.0827L82.1702 30.5634L82.6153 30.0441L82.9862 29.4507L83.3572 28.9314L83.7281 28.2637L84.1732 27.6703L84.8408 26.5575L85.5827 27.8186L86.0278 28.4863L86.3245 28.9314L86.6212 29.3765L87.0664 30.0441L87.4373 30.4892L87.8082 30.9343L88.2533 31.4536L87.0664 36.2756L89.4402 33.3082L93.0752 32.6406L88.6242 31.3795L88.3275 30.6376Z" fill="#0097D6"/>
<path d="M83.1367 12.9824L83.0625 13.0566" stroke="#45474F" stroke-width="0.0589547" stroke-linecap="round" stroke-linejoin="round"/>
<path d="M83.1367 13.0557H83.0625H83.1367Z" fill="#45474F" stroke="#45474F" stroke-width="0.0589547" stroke-linecap="round" stroke-linejoin="round"/>
<path d="M83.1367 12.9824V13.0566H83.0625" fill="#45474F"/>
<path d="M83.1367 12.9824V13.0566H83.0625" stroke="#45474F" stroke-width="0.0589547" stroke-linecap="round" stroke-linejoin="round"/>
<path d="M83.1367 12.9824L83.0625 13.0566V12.9824H83.1367Z" fill="#45474F" stroke="#003D77" stroke-width="0.0589547" stroke-linecap="round" stroke-linejoin="round"/>
<path d="M83.1367 13.0557H83.0625H83.1367Z" fill="#45474F" stroke="#45474F" stroke-width="0.0589547" stroke-linecap="round" stroke-linejoin="round"/>
<path d="M83.0625 12.9824V13.0566V12.9824Z" fill="#45474F" stroke="#003D77" stroke-width="0.0589547" stroke-linecap="round" stroke-linejoin="round"/>
<path d="M83.0625 12.9824V13.0566V12.9824Z" fill="#45474F" stroke="#003D77" stroke-width="0.0589547" stroke-linecap="round" stroke-linejoin="round"/>
<path d="M83.1367 13.0557H83.0625H83.1367Z" fill="#45474F" stroke="#45474F" stroke-width="0.0589547" stroke-linecap="round" stroke-linejoin="round"/>
<path d="M83.0625 12.9824V13.0566V12.9824Z" fill="#45474F" stroke="#003D77" stroke-width="0.0589547" stroke-linecap="round" stroke-linejoin="round"/>
<path d="M83.0625 12.9824V13.0566V12.9824Z" fill="#656872" stroke="#003D77" stroke-width="0.0589547" stroke-linecap="round" stroke-linejoin="round"/>
<path d="M83.0215 13.0713L83.0949 13.0819L83.0215 13.0713Z" stroke="#45474E" stroke-width="0.0589547" stroke-linecap="round" stroke-linejoin="round"/>
<path d="M83.0625 12.9824V13.0566V12.9824Z" fill="#656872" stroke="#003D77" stroke-width="0.0589547" stroke-linecap="round" stroke-linejoin="round"/>
<path d="M83.0254 13.0801L83.0301 13.0061L83.0254 13.0801Z" stroke="#003D77" stroke-width="0.0589547" stroke-linecap="round" stroke-linejoin="round"/>
<path d="M83.0625 12.9824V13.0566V12.9824Z" fill="#656872" stroke="#003D77" stroke-width="0.0589547" stroke-linecap="round" stroke-linejoin="round"/>
<path d="M83.0117 13.0615L83.0838 13.079L83.0117 13.0615Z" stroke="#45464E" stroke-width="0.0589547" stroke-linecap="round" stroke-linejoin="round"/>
<path d="M83.0605 12.9814L83.0633 13.0556L83.0605 12.9814Z" stroke="#003D77" stroke-width="0.0589547" stroke-linecap="round" stroke-linejoin="round"/>
<path d="M83.0625 12.9824V13.0566V12.9824Z" fill="#656872" stroke="#003D77" stroke-width="0.0589547" stroke-linecap="round" stroke-linejoin="round"/>
<path d="M83.1367 13.0557H83.0625H83.1367Z" fill="#45464E" stroke="#45464E" stroke-width="0.0589547" stroke-linecap="round" stroke-linejoin="round"/>
<path d="M83.0547 12.9814L83.0647 13.0549L83.0547 12.9814Z" stroke="#003D77" stroke-width="0.0589547" stroke-linecap="round" stroke-linejoin="round"/>
<path d="M83.0625 12.9824V13.0566V12.9824Z" fill="#656872" stroke="#003D77" stroke-width="0.0589547" stroke-linecap="round" stroke-linejoin="round"/>
<path d="M83.1367 13.0557H83.0625H83.1367Z" fill="#45464E" stroke="#45464E" stroke-width="0.0589547" stroke-linecap="round" stroke-linejoin="round"/>
<path d="M83.0605 12.9775L83.0774 13.0498L83.0605 12.9775Z" stroke="#003D77" stroke-width="0.0589547" stroke-linecap="round" stroke-linejoin="round"/>
<path d="M83.1367 13.0557H83.0625H83.1367Z" fill="#45464E" stroke="#45464E" stroke-width="0.0589547" stroke-linecap="round" stroke-linejoin="round"/>
<path d="M83.0488 12.9805L83.0691 13.0518L83.0488 12.9805Z" stroke="#003D77" stroke-width="0.0589547" stroke-linecap="round" stroke-linejoin="round"/>
<path d="M83.1367 13.0557H83.0625H83.1367Z" fill="#45464E" stroke="#45464E" stroke-width="0.0589547" stroke-linecap="round" stroke-linejoin="round"/>
<path d="M83.0547 12.9707L83.0782 13.0411L83.0547 12.9707Z" stroke="#003D77" stroke-width="0.0589547" stroke-linecap="round" stroke-linejoin="round"/>
<path d="M83.1367 13.0557H83.0625H83.1367Z" fill="#45464E" stroke="#45464E" stroke-width="0.0589547" stroke-linecap="round" stroke-linejoin="round"/>
<path d="M83.0449 12.9668L83.0715 13.0361L83.0449 12.9668Z" stroke="#003D77" stroke-width="0.0589547" stroke-linecap="round" stroke-linejoin="round"/>
<path d="M83.1367 13.0557H83.0625H83.1367Z" fill="#45464E" stroke="#45464E" stroke-width="0.0589547" stroke-linecap="round" stroke-linejoin="round"/>
<path d="M82.9707 13.0039L83.0009 13.0717L82.9707 13.0039Z" stroke="#003D77" stroke-width="0.0589547" stroke-linecap="round" stroke-linejoin="round"/>
<path d="M83.1367 13.0557H83.0625H83.1367Z" fill="#45464E" stroke="#45464E" stroke-width="0.0589547" stroke-linecap="round" stroke-linejoin="round"/>
<path d="M83.1367 13.0557H83.0625H83.1367Z" fill="#45464E" stroke="#45464E" stroke-width="0.0589547" stroke-linecap="round" stroke-linejoin="round"/>
<path d="M82.9648 13.0039L83.0007 13.0689L82.9648 13.0039Z" stroke="#003D77" stroke-width="0.0589547" stroke-linecap="round" stroke-linejoin="round"/>
<path d="M83.1367 13.0557H83.0625H83.1367Z" fill="#45464E" stroke="#45464E" stroke-width="0.0589547" stroke-linecap="round" stroke-linejoin="round"/>
<path d="M82.9707 13.0078L83.0097 13.0709L82.9707 13.0078Z" stroke="#003D77" stroke-width="0.0589547" stroke-linecap="round" stroke-linejoin="round"/>
<path d="M83.1367 13.0557H83.0625H83.1367Z" fill="#45464E" stroke="#45464E" stroke-width="0.0589547" stroke-linecap="round" stroke-linejoin="round"/>
<path d="M82.9668 13.0039L83.0084 13.0653L82.9668 13.0039Z" stroke="#003D77" stroke-width="0.0589547" stroke-linecap="round" stroke-linejoin="round"/>
<path d="M83.1367 13.0557H83.0625H83.1367Z" fill="#45464E" stroke="#45464E" stroke-width="0.0589547" stroke-linecap="round" stroke-linejoin="round"/>
<path d="M82.959 13.0088L83.0031 13.0684L82.959 13.0088Z" stroke="#003D77" stroke-width="0.0589547" stroke-linecap="round" stroke-linejoin="round"/>
<path d="M83.1367 13.0557H83.0625H83.1367Z" fill="#45464E" stroke="#45464E" stroke-width="0.0589547" stroke-linecap="round" stroke-linejoin="round"/>
<path d="M82.957 13.0059L83.0037 13.0635L82.957 13.0059Z" stroke="#003D77" stroke-width="0.0589547" stroke-linecap="round" stroke-linejoin="round"/>
<path d="M83.1367 13.0557H83.0625H83.1367Z" fill="#45464E" stroke="#45464E" stroke-width="0.0589547" stroke-linecap="round" stroke-linejoin="round"/>
<path d="M83.1367 13.0557H83.0625H83.1367Z" fill="#45464E" stroke="#45464E" stroke-width="0.0589547" stroke-linecap="round" stroke-linejoin="round"/>
<path d="M83.1367 13.0557H83.0625H83.1367Z" fill="#45464E" stroke="#45464E" stroke-width="0.0589547" stroke-linecap="round" stroke-linejoin="round"/>
<path d="M83.1367 13.0557H83.0625H83.1367Z" fill="#45464E" stroke="#45464E" stroke-width="0.0589547" stroke-linecap="round" stroke-linejoin="round"/>
<path d="M83.1367 13.0557H83.0625H83.1367Z" fill="#45464E" stroke="#45464E" stroke-width="0.0589547" stroke-linecap="round" stroke-linejoin="round"/>
<path d="M83.1365 13.0557L82.6914 13.7975L83.0623 13.0557H83.1365Z" fill="#003D77" stroke="#003D77" stroke-width="0.0589547" stroke-linecap="round" stroke-linejoin="round"/>
<path d="M82.987 12.9824V13.0566L80.3164 16.4691L80.4648 16.6916L82.6903 13.7984L83.0612 13.0566L82.987 12.9824Z" fill="white"/>
<path d="M86.6228 12.9081C86.6228 12.9081 86.697 12.9081 86.697 12.9822L89.2934 16.3947L93.2993 17.1365C93.3735 17.1365 93.4477 17.2849 93.3735 17.3591L88.5516 18.8428C88.329 19.6588 88.0323 20.4748 87.7355 21.2167C87.3646 22.1811 86.9195 23.0713 86.5486 23.9615C87.513 23.9615 88.4032 24.0357 89.3676 24.184C90.1836 24.2582 90.9255 24.4066 91.7415 24.5549L95.3023 20.6232C95.3023 20.6232 95.3023 20.6232 95.3765 20.6232C95.4507 20.6232 95.4507 20.6974 95.4507 20.7716L94.1896 24.9259L95.8216 29.0802C95.8216 29.1544 95.8216 29.2285 95.7474 29.2285C95.7474 29.2285 95.7474 29.2285 95.6732 29.2285L91.8899 25.4452C91.0738 25.5935 90.2578 25.7419 89.4418 25.8161C88.4774 25.8903 87.5872 25.9644 86.6228 26.0386C87.0679 26.9288 87.513 27.819 87.8839 28.7093C88.2548 29.5253 88.5516 30.3413 88.9225 31.1573L93.967 32.5668C94.0412 32.5668 94.0412 32.7152 93.8928 32.7894L89.6643 33.6054L86.9195 37.0179C86.9195 37.092 86.8453 37.092 86.8453 37.092C86.7712 37.092 86.7712 37.092 86.7712 37.0179L88.0323 31.6766C87.513 31.009 86.9937 30.3413 86.4744 29.6736C85.8809 28.8576 85.3617 28.0416 84.8424 27.1514C84.3231 28.0416 83.8038 28.8576 83.2845 29.6736C82.7652 30.4155 82.2459 31.0831 81.7267 31.7508L82.9878 37.0179C82.9878 37.092 82.9878 37.092 82.9136 37.092C82.8394 37.092 82.8394 37.092 82.8394 37.0179L80.0946 33.6054L75.8661 32.8636C75.7177 32.8636 75.7177 32.7152 75.7919 32.641L80.9848 31.1573C81.2815 30.3413 81.5783 29.5253 81.9492 28.7834C82.3201 27.819 82.7652 26.9288 83.2103 26.0386C82.2459 26.0386 81.2815 25.9644 80.3913 25.8161C79.5753 25.7419 78.8335 25.5935 78.0175 25.4452L74.1599 29.3769C74.1599 29.3769 74.1599 29.3769 74.0857 29.3769C74.0115 29.3769 74.0115 29.3027 74.0115 29.2285L75.6436 25.0742L74.3824 20.9199C74.3824 20.8458 74.3824 20.7716 74.4566 20.7716C74.4566 20.7716 74.4566 20.7716 74.5308 20.7716L78.0175 24.5549C78.8335 24.4066 79.6495 24.2582 80.4655 24.184C81.4299 24.1098 82.3201 24.0357 83.2845 23.9615C82.8394 23.0713 82.4685 22.1811 82.0976 21.2909C81.8008 20.4748 81.5041 19.6588 81.2074 18.8428L76.5338 17.4333C76.4596 17.4333 76.4596 17.2849 76.608 17.2107L80.6139 16.3947L83.2103 12.9822C83.2103 12.9081 83.2845 12.9081 83.2845 12.9081C83.3587 12.9081 83.3587 12.9081 83.3587 12.9822L82.0234 18.3235C82.5427 18.9912 82.9878 19.6588 83.4329 20.3265C83.9522 21.1425 84.4715 21.9585 84.9907 22.8487C85.51 21.9585 85.9551 21.1425 86.4744 20.3265C86.9195 19.5846 87.4388 18.917 87.9581 18.1751L86.697 12.9822C86.5486 12.9081 86.5486 12.9081 86.6228 12.9081ZM86.6228 12.6113C86.4744 12.6113 86.4002 12.6855 86.3261 12.7597C86.2519 12.8339 86.2519 12.9822 86.2519 13.0564L87.513 18.1751C87.0679 18.7686 86.6228 19.4363 86.1035 20.1781C85.7326 20.7716 85.2875 21.5134 84.8424 22.2552C84.3973 21.4392 83.9522 20.8458 83.5813 20.1781C83.1361 19.4363 82.691 18.8428 82.2459 18.2493L83.5071 13.0564C83.5071 12.9081 83.5071 12.8339 83.4329 12.7597C83.3587 12.6855 83.2845 12.6113 83.1361 12.6113C82.9878 12.6113 82.9136 12.6855 82.7652 12.7597L80.243 16.098L76.3854 16.8398C76.0145 16.914 76.0145 17.0624 76.0145 17.2107C76.0145 17.3591 76.5338 17.5075 76.6821 17.5075L80.7623 18.7686C80.9848 19.5104 81.3557 20.4748 81.7267 21.2909C82.0234 21.9585 82.3201 22.7003 82.7652 23.5906C81.9492 23.6647 81.2074 23.6647 80.3913 23.7389C79.5753 23.8131 78.7593 23.9615 78.0916 24.0357L74.7534 20.4006C74.6792 20.3265 74.605 20.2523 74.4566 20.2523C74.3083 20.2523 74.2341 20.3265 74.1599 20.4006C74.0857 20.549 74.0857 20.6974 74.0857 20.7716L75.3468 24.8517L73.789 28.9318C73.7148 29.0802 73.7148 29.2285 73.8631 29.3769C73.9373 29.4511 74.0115 29.5253 74.1599 29.5253C74.2341 29.5253 74.3824 29.4511 74.4566 29.4511L78.24 25.6677C78.9077 25.8161 79.6495 25.8903 80.4655 25.9644C81.2074 26.0386 82.0234 26.1128 82.9136 26.1128C82.4685 27.003 82.1717 27.7449 81.8008 28.4867C81.4299 29.3027 81.1332 30.0446 80.9106 30.7122L75.8661 32.1959C75.7177 32.2701 75.5694 32.4185 75.5694 32.5668C75.5694 32.7894 75.7177 32.9377 75.9403 32.9377L80.0204 33.6796L82.691 37.0179C82.7652 37.092 82.9136 37.1662 83.062 37.1662C83.2103 37.1662 83.2845 37.092 83.3587 37.0179C83.4329 36.9437 83.4329 36.7953 83.4329 36.7211L82.2459 31.6024C82.7652 31.009 83.2103 30.3413 83.7296 29.5995C84.1747 28.9318 84.6198 28.2641 85.0649 27.4481C85.5842 28.2641 85.9551 28.9318 86.4002 29.5253C86.9195 30.2671 87.3646 30.8606 87.8097 31.4541L86.5486 36.7211C86.5486 36.8695 86.5486 36.9437 86.6228 37.0179C86.697 37.092 86.7712 37.1662 86.9195 37.1662C87.0679 37.1662 87.1421 37.092 87.2904 37.0179L89.9611 33.6796L94.0412 32.9377C94.2637 32.9377 94.4121 32.7152 94.4121 32.5668C94.4121 32.4185 94.3379 32.2701 94.1154 32.1959L89.2192 30.7864C88.9225 30.0446 88.6258 29.3027 88.2548 28.4867C87.9581 27.819 87.5872 27.0772 87.1421 26.2612C87.9581 26.187 88.6999 26.187 89.516 26.1128C90.332 26.0386 91.148 25.8903 91.8899 25.7419L95.5249 29.3769C95.599 29.4511 95.6732 29.4511 95.8216 29.4511C95.97 29.4511 96.0442 29.3769 96.1183 29.3027C96.1925 29.1544 96.1925 29.006 96.1925 28.8576L94.6347 24.7775L95.8958 20.6974C95.97 20.549 95.8958 20.4006 95.8216 20.3265C95.7474 20.2523 95.6732 20.1781 95.5249 20.1781C95.4507 20.1781 95.3023 20.2523 95.2281 20.3265L91.8157 24.1098C91.148 23.9615 90.4062 23.8873 89.5901 23.8131C88.8483 23.7389 88.0323 23.6647 87.2163 23.6647C87.6614 22.7745 87.9581 22.0327 88.2548 21.2909C88.5516 20.4748 88.8483 19.733 89.0709 19.0653L93.7445 17.5817C93.8928 17.5075 94.0412 17.3591 93.967 17.2107C93.967 16.9882 93.8186 16.8398 93.5961 16.8398L89.7385 16.098L87.2163 12.7597C86.8453 12.6855 86.7712 12.6113 86.6228 12.6113Z" fill="#003D77"/>
<path d="M44.1921 12.2401C45.8242 12.2401 47.3079 12.8336 48.3464 13.9463C49.7559 15.3558 50.3494 17.433 49.9785 19.7327L47.2337 37.7594L37.5156 36.5724C35.7352 36.3499 34.2515 35.4597 33.2129 34.1244C32.1001 32.6407 31.7292 30.7119 32.1743 28.7089L35.3642 13.3529L43.3019 12.3143C43.5987 12.2401 43.8954 12.2401 44.1921 12.2401ZM43.3761 33.2342L45.8242 18.9908C45.9725 17.8781 45.75 16.9137 45.1565 16.3202C44.7856 15.9493 44.2663 15.7267 43.5987 15.7267C43.4503 15.7267 43.3019 15.7267 43.2277 15.7267L38.9993 16.246L36.5512 29.154C36.3286 30.1184 36.477 31.0086 36.9963 31.6763C37.3672 32.1956 37.9607 32.5665 38.7767 32.6407L43.3761 33.2342ZM44.1921 11.9434C43.8954 11.9434 43.5987 11.9434 43.3019 12.0175L35.3642 13.0561H35.1417L35.0675 13.2787L31.8776 28.6348C31.4325 30.7119 31.8776 32.7149 32.9904 34.2727C34.0289 35.6822 35.661 36.6466 37.4414 36.8692L47.1595 38.0561H47.4562L47.5304 37.7594L50.2752 19.7327C50.6461 17.433 49.9785 15.2075 48.569 13.7238C47.4562 12.5368 45.8984 11.9434 44.1921 11.9434ZM39.296 16.5428L43.3019 16.0235C43.4503 16.0235 43.5245 16.0235 43.6728 16.0235C44.1921 16.0235 44.6372 16.1718 45.0082 16.5428C45.5274 17.0621 45.75 17.9523 45.5274 18.9167L43.1536 32.9374L38.8509 32.4181C38.1832 32.344 37.6639 32.0472 37.293 31.5279C36.8479 30.9345 36.6996 30.1184 36.9221 29.2282L39.296 16.5428Z" fill="black"/>
<path d="M138.035 13.7235L148.495 15.0588C151.907 15.5039 155.023 18.397 155.913 21.9579L158.881 33.2338L150.053 34.3466C149.756 34.3466 149.459 34.4208 149.237 34.4208C145.528 34.4208 141.818 31.3792 141.002 27.4475L138.035 13.7235ZM149.756 30.2665C149.904 30.2665 150.053 30.2665 150.127 30.2665L153.391 29.8214L151.611 22.403C151.091 20.3258 149.163 18.4712 147.234 18.1745L143.154 17.6552L145.082 26.1864C145.602 28.4861 147.753 30.2665 149.756 30.2665ZM137.664 13.3525L137.738 13.7976L140.631 27.4475C141.522 31.5276 145.231 34.7175 149.163 34.7175C149.459 34.7175 149.756 34.7175 150.053 34.6433L158.881 33.5306L159.252 33.4564L159.177 33.1597L156.21 21.8837C155.246 18.2487 152.056 15.2813 148.569 14.762L138.109 13.4267L137.664 13.3525ZM149.756 29.9697C147.827 29.9697 145.898 28.2635 145.453 26.1864L143.599 18.0261L147.308 18.4712C149.088 18.6938 150.869 20.4742 151.388 22.4772L153.094 29.5988L150.127 29.9697C149.979 29.9697 149.904 29.9697 149.756 29.9697Z" fill="black"/>
<path d="M118.078 11.1278L122.455 11.647L124.087 22.4779L131.134 12.7598L135.363 13.2791L128.315 23.2197L141.817 35.3117L136.03 35.9794L125.941 26.558L124.903 28.0417L126.312 37.1663L121.713 37.6856L118.078 11.1278ZM117.707 10.7568L117.781 11.1278L121.342 37.7598L121.416 38.0565H121.713L126.312 37.5373H126.609L126.535 37.2405L125.2 28.1901L126.016 27.0773L135.882 36.2761L135.956 36.3503H136.105L141.891 35.6827L142.559 35.6085L142.039 35.1634L128.686 23.2939L135.585 13.5758L135.882 13.2049L135.363 13.1307L131.134 12.6114H130.986L130.912 12.7598L124.309 21.8844L122.752 11.7954V11.5729H122.529L118.152 11.0536L117.707 10.7568Z" fill="black"/>
<path d="M99.1619 8.75377L111.922 10.3858C113.331 10.6084 114.592 11.5728 115.186 13.0564C115.705 14.4659 115.482 16.0238 114.518 17.1366L108.732 23.368C108.435 23.6647 108.435 23.9615 108.435 24.184C108.435 24.6291 108.657 25.0001 108.954 25.2968L116.224 31.6766C117.485 32.7152 118.005 34.4214 117.56 35.9793C117.114 37.3888 115.928 38.3532 114.518 38.5757L100.794 40.2078L100.646 36.1277L112.886 34.644C112.886 34.5698 112.886 34.3472 112.663 34.1989L105.913 28.1158C104.577 26.7805 104.355 25.7419 104.281 24.1098C104.206 22.7745 105.097 21.5876 105.913 20.6232C105.913 20.6232 111.922 14.1692 111.996 14.1692C112.144 14.0208 111.922 13.7241 111.847 13.7241L99.4587 12.092L99.1619 8.75377ZM98.791 8.45703V8.82795L98.9394 12.2404V12.463H99.1619L111.476 14.095C111.031 14.5401 107.396 18.3977 105.468 20.4748C104.281 21.736 103.687 22.9971 103.761 24.1098C103.836 25.8161 104.132 26.9288 105.468 28.3383L112.218 34.4956L100.349 35.9051H100.052V36.2018L100.201 40.282V40.5787L100.497 40.5045L114.221 38.8725C115.779 38.6499 117.04 37.6113 117.56 36.1277C118.079 34.4956 117.485 32.641 116.15 31.5282L108.88 25.1484C108.657 24.9259 108.509 24.6291 108.509 24.2582C108.509 24.1098 108.509 23.8131 108.732 23.6647L114.518 17.4333C115.557 16.2463 115.853 14.6143 115.26 13.0564C114.666 11.4986 113.331 10.3858 111.773 10.1633L99.0136 8.53121L98.791 8.45703Z" fill="black"/>
<path d="M85.1388 6.52916C85.7323 6.52916 86.3258 6.67753 86.8451 7.04845L97.8985 14.1701C98.9371 14.8378 99.6047 16.0247 99.6789 17.2858L100.421 31.6033C100.495 32.9387 99.8273 34.1256 98.7887 34.8674L86.9193 42.0633C86.3258 42.4342 85.7323 42.5826 85.0647 42.5826C84.4712 42.5826 83.8035 42.4342 83.2842 42.0633L71.4148 34.9416C70.302 34.274 69.7086 33.0128 69.7828 31.6775L70.5988 17.36C70.673 16.0989 71.3406 14.9119 72.3792 14.2443L83.5068 7.04845C83.9519 6.75171 84.5454 6.52916 85.1388 6.52916ZM85.0647 39.3927C85.2872 39.3927 85.4356 39.3185 85.6581 39.2443L96.7115 32.4936C97.0083 32.271 97.1566 31.9001 97.1566 31.455L96.5632 17.2858C96.5632 16.8407 96.3406 16.3956 95.9697 16.1731L85.5839 9.1256C85.4356 9.05141 85.3614 8.97723 85.213 8.97723C85.0647 8.97723 84.9905 9.05141 84.8421 9.1256L74.3822 16.2473C74.0112 16.4698 73.7887 16.9149 73.7887 17.4342L73.1952 31.6033C73.1952 32.0484 73.3436 32.4194 73.6403 32.6419L84.6196 39.2443C84.6937 39.3185 84.8421 39.3927 85.0647 39.3927ZM85.1388 6.23242C84.4712 6.23242 83.8035 6.45497 83.2101 6.82589L72.0825 14.0217C70.9697 14.6894 70.2279 16.0247 70.1537 17.36L69.4118 31.6775C69.3377 33.087 70.0053 34.4223 71.1923 35.1642L83.0617 42.2858C83.6552 42.6568 84.3228 42.8051 84.9905 42.8051C85.7323 42.8051 86.4 42.5826 86.9934 42.2858L98.8629 35.0158C100.05 34.274 100.717 32.9387 100.643 31.5292L99.9015 17.2117C99.8273 15.8763 99.0854 14.541 97.9727 13.8734L86.9193 6.75171C86.4742 6.45497 85.8065 6.23242 85.1388 6.23242ZM85.0647 39.0959C84.9163 39.0959 84.7679 39.0959 84.6937 39.0217L73.7145 32.4194C73.492 32.271 73.4178 31.9743 73.4178 31.6775L74.0112 17.5084C74.0112 17.1375 74.2338 16.7665 74.5305 16.544L84.9905 9.42233C85.0647 9.34815 85.1388 9.34815 85.213 9.34815C85.2872 9.34815 85.3614 9.34815 85.4356 9.42233L95.8955 16.4698C96.1923 16.6182 96.3406 16.9891 96.3406 17.36L96.9341 31.5292C96.9341 31.8259 96.7857 32.1226 96.6374 32.271L85.5839 39.0217C85.3614 39.0217 85.213 39.0959 85.0647 39.0959Z" fill="black"/>
<path d="M66.7424 9.2733C67.1875 9.2733 67.6326 9.42167 68.0035 9.79259C68.3744 10.1635 68.597 10.6828 68.597 11.2763L67.781 20.9944C67.2617 27.2258 62.0688 32.1961 56.1341 32.1961L55.3922 38.6502L50.867 38.1309L54.2795 10.757L66.5198 9.2733C66.594 9.2733 66.6682 9.2733 66.7424 9.2733ZM56.5792 28.1902C60.4367 27.8935 63.2557 24.7778 63.5525 20.9202L64.2943 12.9825L58.2112 13.7985L56.5792 28.1902ZM66.7424 8.97656C66.6682 8.97656 66.594 8.97656 66.4456 8.97656L54.2053 10.4602H53.9827V10.6828L50.5703 38.0567L50.4961 38.3534H50.7928L55.3922 38.8727H55.689V38.576L56.3566 32.3445C62.2913 32.1961 67.4842 27.0775 68.0035 20.846L68.8195 11.1279C68.8937 10.4602 68.6712 9.86677 68.1519 9.42167C67.8551 9.19912 67.3359 8.97656 66.7424 8.97656ZM58.4338 14.0211L63.9234 13.2792L63.2557 20.846C63.0332 24.5552 60.4367 27.3 56.9501 27.8193L58.4338 14.0211Z" fill="black"/>
<path d="M84.9915 0.296736C108.805 0.296736 134.101 5.71217 161.03 12.4629C161.401 12.5371 161.698 12.908 161.772 13.2047L168.894 35.6825C169.042 36.0534 168.968 36.3501 168.819 36.6469C168.671 36.9436 168.448 37.092 168.152 37.1662C153.463 40.8754 122.9 49.7033 84.6206 49.7033C65.4069 49.7033 42.9292 45.6231 21.4158 41.8398L27.0538 19.2878L16.2971 30.7864L9.76895 21.5875L5.09536 38.2047C4.35352 38.0564 1.60871 37.3887 0.570139 37.092L6.20812 18.9169C6.57904 17.6558 7.6918 16.7656 8.87874 16.543C9.02711 16.543 9.17548 16.543 9.32385 16.543C10.1399 16.543 10.8817 16.9139 11.401 17.5816L16.7422 24.7033L27.3506 13.724C27.944 13.0564 28.76 12.6855 29.5761 12.6855C30.0212 12.6855 30.3921 12.7596 30.8372 12.9822C31.95 13.5757 32.4692 14.7626 32.1725 16.0979L26.8313 39.7626C45.0805 42.8042 65.1102 44.8071 84.7689 44.8071C121.861 44.8071 150.718 38.5757 165.704 34.7923L159.991 14.5401C133.434 7.93768 108.582 4.37685 85.1399 4.37685C52.7957 4.37685 24.8283 10.8309 7.91435 14.911C7.98853 14.6884 8.73038 12.4629 8.73038 12.4629C27.128 7.78932 55.3179 0.296736 84.9915 0.296736ZM84.9915 0C57.2467 0 31.2081 6.45401 12.217 11.1276C10.9559 11.4243 9.69477 11.7953 8.43364 12.092L8.28527 12.1662L8.21109 12.3145C8.21109 12.3145 7.46925 14.5401 7.39506 14.7626L7.2467 15.2819L7.76598 15.1335C21.8609 11.7211 51.2378 4.59941 84.9173 4.59941C107.543 4.59941 131.95 7.93768 159.546 14.6884L165.184 34.4955C138.849 41.0979 111.772 44.4362 84.6206 44.4362C66.6681 44.4362 46.7868 42.73 27.0538 39.4659L32.3209 16.0979C32.6176 14.6884 32.0241 13.2789 30.8372 12.6855C30.3921 12.4629 29.947 12.3145 29.4277 12.3145C28.5375 12.3145 27.6473 12.6855 26.9796 13.4273L16.7422 24.2582L11.6235 17.4332C11.1043 16.6914 10.2882 16.2463 9.32385 16.2463C9.17548 16.2463 9.02711 16.2463 8.80456 16.3205C7.46925 16.543 6.2823 17.5816 5.91139 18.9169L0.273402 37.092L0.199219 37.3887L0.495954 37.4629C1.53453 37.7596 4.20515 38.3531 5.09536 38.5757L5.3921 38.6499L5.46628 38.3531L9.9915 22.3294L16.223 31.0089L16.4455 31.3056L16.6681 31.0089L26.6087 20.3264C24.3832 28.7834 21.1933 41.6914 21.1933 41.7656L21.1191 42.0623L21.4158 42.1365L23.8639 42.5816C44.6354 46.2166 66.1488 50 84.6948 50C120.155 50 149.161 42.4332 164.813 38.3531C166.075 38.0564 167.262 37.6855 168.374 37.4629C168.745 37.3887 169.042 37.092 169.264 36.7953C169.487 36.4243 169.487 36.0534 169.339 35.6083L162.217 13.1306C162.143 12.7596 161.772 12.3145 161.253 12.1662C131.876 4.82196 107.692 0 84.9915 0Z" fill="black"/>
</svg>
