<svg width="169" height="31" viewBox="0 0 169 31" fill="none" xmlns="http://www.w3.org/2000/svg">
<path d="M57.3259 0.62164H48.2491V12.4459H38.7984V0.62164H29.7215V30.3649H38.7984V18.6667H48.2491V30.3649H57.3259V0.62164ZM88.9124 24.3919V0.62164H79.8355V30.3649H96.2504L97.6197 24.3919H88.9124ZM73.1192 0.62164H64.0423V30.3649H73.1192V0.62164ZM109.931 0.62164H100.854V30.3649H109.931V0.62164ZM154.702 8.21178C154.702 6.59463 156.319 5.84692 158.932 5.84692C161.792 5.84692 164.901 6.46857 167.013 7.34234L166.266 0.869431C163.901 0.373855 161.788 0 157.932 0C150.594 0 145.621 2.89521 145.621 8.95949C145.621 19.4144 159.797 17.2973 159.797 22.1531C159.797 24.018 158.428 25.0135 155.072 25.0135C152.085 25.0135 147.486 24.018 144.752 22.6487L145.747 29.4954C148.481 30.4909 152.216 30.9909 155.198 30.9909C162.784 30.9909 169 28.4999 169 21.0359C169 11.0809 154.698 12.9458 154.698 8.21612L154.702 8.21178ZM129.084 23.2703C137.54 23.2703 142.887 18.9145 142.887 11.3243C142.887 2.9865 137.166 0 127.837 0C124.229 0 119.877 0.247785 116.769 0.62164V30.3649H125.846V23.2703H129.08H129.084ZM133.936 11.4461C133.936 15.3063 132.071 17.919 127.346 17.919H125.854V5.62956C126.385 5.59913 126.88 5.59914 127.346 5.59914C131.823 5.59914 133.936 7.7162 133.936 11.4461ZM12.3111 23.2703C20.7664 23.2703 26.1134 18.9145 26.1134 11.3243C26.1134 2.9865 20.3925 0 11.0679 0C7.45972 0 3.10822 0.247785 0 0.62164V30.3649H9.07686V23.2703H12.3111ZM17.1626 11.4461C17.1626 15.3063 15.2976 17.919 10.5723 17.919H9.08121V5.62956C9.61156 5.59913 10.1071 5.59914 10.5723 5.59914C15.0499 5.59914 17.1626 7.7162 17.1626 11.4461Z" fill="#0B5ED7"/>
</svg>
