<svg width="157" height="30" viewBox="0 0 157 30" fill="none" xmlns="http://www.w3.org/2000/svg">
<path d="M20.1209 14.9745L32.0115 0.579102H29.1993H24.699H24.5045L24.3801 0.730796L16.3286 10.4781L7.9348 0.579102H5.09539H1.24467H0.350065L0.929617 1.25978L12.5751 14.9706L1.83201 27.643H1.82423L0 29.8095H7.54584L16.3208 19.4592L23.5632 28.2225L24.8429 29.8095H32.3771L20.117 14.9706L20.1209 14.9745Z" fill="#231F20"/>
<path d="M1.45808 28.7319H6.9541L15.8496 18.2416L24.5157 28.7319H29.9533L18.5879 14.9744L30.1362 0.995117H24.6985L15.8496 11.711L6.7674 0.995117H1.24805L13.123 14.9744L1.45808 28.7319Z" fill="#58595B"/>
<path d="M6.31134 1.75457L6.76642 0.996094H1.24707L3.18409 1.75457H6.31134Z" fill="white"/>
<path d="M1.45605 28.7331L3.40086 27.8035L14.284 14.9756H13.121L1.45605 28.7331Z" fill="white"/>
<path d="M30.1352 0.996094H25.6427H24.6975L24.0129 1.82847L15.8486 11.712V12.9333L24.9581 1.82847L28.3187 1.83236L30.1352 0.996094Z" fill="white"/>
<path d="M38.0631 0.582989H34.9553H34.543V27.6469V29.8134H40.2335V0.579102H38.067L38.0631 0.582989Z" fill="#231F20"/>
<path d="M39.1481 0.995117H34.9551V28.7319H39.1481V0.995117Z" fill="#58595B"/>
<path d="M39.1481 0.995117L38.3157 1.83138H35.8769V27.7751L34.9551 28.7319V0.995117H39.1481Z" fill="white"/>
<path d="M113.715 0H112.412L111.821 1.06964L102.532 17.7522L92.7034 0H91.4237L91.3693 0.120577L91.2681 0.342287L78.9147 27.6473L77.9307 29.8138H84.4107L92.5167 11.8905L101.591 28.293L102.505 29.9694L112.521 11.98L119.483 27.6473H119.476L120.44 29.8138H126.963L113.711 0H113.715Z" fill="#231F20"/>
<path d="M120.363 28.6082L112.175 10.187L102.078 28.3243L92.0348 10.1676L83.6955 28.6082H78.9385L91.6458 0.513584L102.089 19.3937L112.611 0.494141L125.108 28.6082H120.363Z" fill="#58595B"/>
<path d="M78.9385 28.6083L80.2026 27.7993L91.6925 2.35735L91.6458 0.513672L78.9385 28.6083Z" fill="white"/>
<path d="M112.611 0.494141L112.638 2.17445L102.09 20.9885V19.3937L112.611 0.494141Z" fill="white"/>
<path d="M75.6065 15.6912V15.6834H75.1942L70.9623 15.6757H70.55V16.088V24.0228H62.129C57.7532 24.0228 53.9142 22.2413 51.7943 19.5808C50.7675 18.2739 50.2463 16.7764 50.2463 15.2634C50.2463 10.5492 55.8318 6.25114 62.129 6.25114H76.2172V0.583984H74.0585H62.129C52.7084 0.583984 45.042 6.96294 45.042 14.8005C45.042 14.8433 45.042 14.8861 45.0459 14.9289C45.0459 23.1359 52.3428 29.8144 62.129 29.8144H76.2133L76.2716 15.6873H75.6104L75.6065 15.6912Z" fill="#231F20"/>
<path d="M75.1396 28.6084H62.1328C52.9377 28.6084 45.458 22.4162 45.458 14.8042C45.458 7.19226 52.9377 1 62.1328 1H75.1396V5.17355H62.1328C55.2404 5.17355 49.6316 9.4949 49.6316 14.8042C49.6316 20.1135 55.2404 24.4349 62.1328 24.4349H70.9661V16.0878L75.1979 16.0956L75.1435 28.6084H75.1396Z" fill="#58595B"/>
<path d="M75.1944 16.0955H70.9781V24.4465H62.0631C55.3068 24.4465 49.9508 20.2768 49.6358 15.1309C49.628 15.2864 49.6669 15.8349 49.6825 15.9905C50.1803 20.7863 55.1046 25.3683 62.0631 25.3683H71.9155V16.9629L74.2959 16.9784L75.1944 16.0994V16.0955Z" fill="white"/>
<path d="M45.8664 15.761C45.8664 8.14908 53.3461 1.95683 62.5411 1.95683H74.2916L75.1357 0.996094H62.1288C52.9338 0.996094 45.4541 7.18835 45.4541 14.8003C45.4541 16.5506 45.8664 18.2154 46.586 19.7557C46.1231 18.4915 45.8664 17.1496 45.8664 15.761Z" fill="white"/>
<path d="M142.454 0H141.077L140.956 0.256715L127.549 28.258L126.798 29.8177H133.122L141.816 11.6533L149.614 27.6512L150.664 29.8177H157.001L142.461 0.00388747L142.454 0Z" fill="#231F20"/>
<path d="M132.36 28.608L141.36 9.79394L150.532 28.608H155.063L141.325 0.435547L127.832 28.608H132.36Z" fill="#58595B"/>
<path d="M127.832 28.608L141.325 0.435547L141.302 2.58261L129.306 27.7406L127.832 28.608Z" fill="white"/>
</svg>
