<svg width="120" height="35" viewBox="0 0 120 35" fill="none" xmlns="http://www.w3.org/2000/svg">
<path d="M70.4668 34.9996V24.4307H75.7767V26.9243H73.3264V28.3967H75.5239V30.8903H73.3264V32.503H75.7767V34.9996H70.4668Z" fill="#888B8D"/>
<path d="M84.6496 34.9996H81.4821L80.8934 33.3596L80.5584 32.1677H80.5305L80.1955 33.3596L79.5646 34.9996H76.4521L79.0158 29.5185L76.5917 24.4307H79.7743L80.2378 25.7049C80.2928 25.8543 80.3566 26.0799 80.4268 26.3786C80.497 26.6774 80.5401 26.8603 80.5608 26.9243H80.5887L80.8847 25.7049L81.2628 24.4307H84.4725L82.0612 29.5185L84.6551 34.9996H84.6496Z" fill="#888B8D"/>
<path d="M88.1818 34.9996H85.3223V24.4307H87.9282C90.8699 24.4307 92.3423 25.6257 92.3423 28.0187C92.3423 29.3265 91.9802 30.2501 91.2575 30.7867C90.5317 31.3232 89.5075 31.5732 88.1818 31.5367V34.9996ZM89.4557 27.9791C89.4557 27.6255 89.3615 27.3236 89.1757 27.0737C88.989 26.8267 88.7274 26.7018 88.3916 26.7018L88.1818 26.717V29.1558C88.5751 29.1741 88.8853 29.0826 89.1143 28.8753C89.3432 28.671 89.4589 28.3723 89.4589 27.9791" fill="#888B8D"/>
<path d="M93.1289 34.9996V24.4307H98.4388V26.9243H95.9885V28.3967H98.186V30.8903H95.9885V32.503H98.4388V34.9996H93.1289Z" fill="#888B8D"/>
<path d="M107.271 34.9996H104.173L102.589 30.5977L102.561 30.6251C102.561 30.7379 102.564 30.8995 102.576 31.1159C102.585 31.3324 102.591 31.5245 102.597 31.6982C102.604 31.872 102.604 32.0335 102.604 32.1829V34.9996H99.7441V24.4307H102.506C103.161 24.4307 103.735 24.4855 104.232 24.5923C104.725 24.6989 105.174 24.8818 105.569 25.1379C105.966 25.394 106.268 25.7568 106.475 26.2231C106.679 26.6896 106.783 27.2657 106.783 27.9486C106.783 28.5552 106.645 29.0948 106.369 29.5673C106.094 30.0398 105.683 30.3813 105.143 30.5977L107.274 34.9996H107.271ZM102.604 29.3082L102.786 29.3234C103.152 29.3234 103.436 29.1893 103.64 28.9241C103.844 28.6589 103.948 28.3418 103.948 27.9791C103.948 27.531 103.826 27.2017 103.582 26.9913C103.338 26.781 103.012 26.6865 102.601 26.7048V29.3112L102.604 29.3082Z" fill="#888B8D"/>
<path d="M111.488 34.9996H108.631V27.0097H107.062V24.4307H113.128V27.0097H111.488V34.9996Z" fill="#888B8D"/>
<path d="M38.3983 24.041H36.8223V29.8636H38.3983V24.041Z" fill="#888B8D"/>
<path d="M39.1172 29.8636V24.041H40.614L41.873 27.5467L41.8882 27.5315C41.873 27.3883 41.8486 27.1749 41.8151 26.8975C41.7816 26.62 41.7572 26.3701 41.7389 26.1537C41.7205 25.9342 41.7115 25.7238 41.7115 25.5257V24.0441H43.2265V29.8666H41.7115L40.5378 26.5073L40.5226 26.5225C40.5317 26.6353 40.5469 26.806 40.5683 27.0377C40.5896 27.2663 40.6049 27.4706 40.614 27.6474C40.6231 27.8242 40.6292 27.9949 40.6292 28.1595V29.8666H39.1172V29.8636Z" fill="#888B8D"/>
<path d="M46.4212 29.8636H44.8147L43.4795 24.041H45.1317L45.5037 26.4341C45.528 26.6078 45.5616 26.8578 45.5951 27.1749C45.6317 27.495 45.656 27.7144 45.6713 27.8394H45.6866C45.7079 27.7175 45.7353 27.495 45.7688 27.1749C45.8024 26.8548 45.8329 26.6078 45.8664 26.4341L46.2992 24.041H48.0065L46.4242 29.8636H46.4212Z" fill="#888B8D"/>
<path d="M48.2598 29.8636V24.041H51.1863V25.4159H49.8358V26.2268H51.0461V27.6016H49.8358V28.4888H51.1863V29.8636H48.2598Z" fill="#888B8D"/>
<path d="M56.0512 29.8636H54.3441L53.4722 27.4401L53.4569 27.4553C53.4569 27.5163 53.4569 27.6078 53.4661 27.7266C53.4723 27.8455 53.4753 27.9522 53.4783 28.0467C53.4783 28.1412 53.4813 28.2296 53.4813 28.3119V29.8636H51.9053V24.041H53.4265C53.7862 24.041 54.1033 24.0716 54.3776 24.1295C54.6489 24.1874 54.8958 24.288 55.1153 24.4312C55.3348 24.5715 55.4995 24.7727 55.6123 25.0287C55.725 25.2879 55.783 25.6019 55.783 25.9799C55.783 26.3152 55.7067 26.6109 55.5543 26.8731C55.4019 27.1322 55.1763 27.3212 54.8775 27.4401L56.0512 29.8636ZM53.4783 26.7298L53.5789 26.7389C53.7801 26.7389 53.9356 26.6658 54.0514 26.5195C54.1642 26.3731 54.2221 26.1994 54.2221 25.9981C54.2221 25.7513 54.155 25.5683 54.021 25.4525C53.8868 25.3366 53.7069 25.2848 53.4813 25.294V26.7298H53.4783Z" fill="#888B8D"/>
<path d="M58.374 29.8636H56.801V25.4616H55.9355V24.041H59.2801V25.4616H58.374V29.8636Z" fill="#888B8D"/>
<path d="M59.7031 29.8636V24.041H62.6297V25.4159H61.2785V26.2268H62.4925V27.6016H61.2785V28.4888H62.6297V29.8636H59.7031Z" fill="#888B8D"/>
<path d="M67.4958 29.8636H65.788L64.9162 27.4401L64.901 27.4553C64.901 27.5163 64.901 27.6078 64.9106 27.7266C64.9162 27.8455 64.9194 27.9522 64.9226 28.0467C64.9226 28.1412 64.9258 28.2296 64.9258 28.3119V29.8636H63.3496V24.041H64.8707C65.2305 24.041 65.5471 24.0716 65.8215 24.1295C66.0959 24.1874 66.34 24.288 66.5593 24.4312C66.7787 24.5715 66.9438 24.7727 67.0563 25.0287C67.1695 25.2879 67.227 25.6019 67.227 25.9799C67.227 26.3152 67.1512 26.6109 66.9988 26.8731C66.8465 27.1322 66.6208 27.3212 66.3216 27.4401L67.4958 29.8636ZM64.9226 26.7298L65.0231 26.7389C65.2241 26.7389 65.3796 26.6658 65.4953 26.5195C65.6085 26.3731 65.666 26.1994 65.666 25.9981C65.666 25.7513 65.599 25.5683 65.465 25.4525C65.331 25.3366 65.1515 25.2848 64.9258 25.294V26.7298H64.9226Z" fill="#888B8D"/>
<path d="M74.2271 9.5995L73.6719 18.2907H78.8997L79.4613 9.46231C79.7109 5.45055 76.8761 5.15486 75.0008 4.95976C74.8764 4.94452 73.8793 4.86523 72.5138 4.86523C72.1596 4.86523 71.7847 4.86827 71.3915 4.8835C68.1387 4.99326 64.1393 5.45358 64.0994 5.46275L64.0085 5.47799L63.1885 18.2876H68.4378L69.0775 7.88927C69.0775 7.88927 71.2088 7.61496 72.4069 7.68507C73.6081 7.75519 74.3244 8.13016 74.2295 9.52325" fill="#00A19B"/>
<path d="M15.4617 0.00292969H15.3489L15.3399 0.115717L14.8551 6.37118H6.65173L7.05414 1.16438C7.06635 0.0456041 6.11826 0.00292969 5.64877 0.00292969H1.4175L1.4084 0.115717L0.00917246 18.0955L0 18.2266H5.73109L5.74026 18.1138L6.35908 10.1726H14.5625L13.9467 18.0955L13.9345 18.2266H19.6473L19.6534 18.1138L21.0496 0.133983L21.0587 0.00292969H15.4617Z" fill="#00A19B"/>
<path d="M22.9419 4.96875H22.8291L22.823 5.08154L21.8109 18.2295H21.8018H21.9328H27.2981H27.4109H27.4201L28.4261 5.0998L28.4352 4.96875H28.3041H22.9419Z" fill="#00A19B"/>
<path d="M27.5759 0.00303137H23.2319L23.2227 0.134164L22.9788 3.34724L22.9697 3.4783H28.5758L28.5819 3.36248C28.5819 3.36248 28.7191 1.49678 28.7405 1.16145C28.7892 0.381036 28.4783 0 27.579 0" fill="#00A19B"/>
<path d="M39.865 10.3525L37.859 9.51112C36.4568 8.9471 35.3959 8.53257 35.5818 7.95332C35.6855 7.62716 36.3288 7.41379 38.2524 7.41379C39.9839 7.41379 41.9136 7.62413 44.145 8.04177L44.273 8.0661L44.2852 7.93808L44.5291 5.42924L44.5413 5.31638L44.4285 5.29508C43.5597 5.12741 41.2277 4.73114 38.3438 4.67012C38.1456 4.66709 37.9475 4.66406 37.7524 4.66406C36.6458 4.66406 35.6063 4.73114 34.6613 4.85917C32.8749 5.10604 29.8508 5.8926 29.7014 8.3862C29.546 10.9408 32.6005 12.0566 34.4662 12.8308L36.0147 13.4436C37.7798 14.1509 38.6151 14.4069 38.5785 14.9313C38.545 15.4281 37.8774 15.5531 36.2861 15.5531C36.088 15.5531 35.8806 15.5501 35.6642 15.5471C33.6583 15.5044 30.8232 15.0867 29.7654 14.9038L29.6344 14.8794L29.6252 15.0105L29.4545 17.7236L29.4453 17.8364L29.5581 17.8547C29.5795 17.8578 31.686 18.1901 36.1672 18.3119C36.4324 18.3181 36.6946 18.3211 36.9567 18.3211C40.2186 18.3211 44.1968 17.8121 44.6327 15.0928C45.0321 12.6022 42.4104 11.4895 39.8589 10.3494" fill="#00A19B"/>
<path d="M62.1055 12.6603C63.231 6.27383 57.5701 5.03006 56.2406 4.82881C55.7498 4.76484 55.2224 4.72216 54.6524 4.70996H54.5883C48.9548 4.81358 46.7416 7.70353 45.8759 9.8192C45.8118 9.9777 45.6015 10.5508 45.5101 11.2367C45.5009 11.3282 45.4887 11.4166 45.4826 11.5111C45.4795 11.5568 45.4765 11.5995 45.4735 11.6421C45.3485 13.5992 45.8881 16.8886 50.6192 18.0165C50.8784 18.0775 51.1466 18.1324 51.4331 18.1811C52.4117 18.3274 53.1708 18.489 55.0608 18.489C58.2712 18.489 60.3315 18.0165 61.2097 17.7634C61.3039 17.1721 61.4929 15.9618 61.6429 15.0289C61.2097 15.1265 58.5911 15.6844 55.7407 15.6844C55.6492 15.6844 55.5638 15.6813 55.4785 15.6813C51.5094 15.5473 50.7198 13.5992 50.7137 12.703C50.7137 12.703 50.7137 12.6878 50.7107 12.6603H62.1087H62.1055ZM50.9302 10.1545C51.1771 8.75833 52.2562 7.34379 54.5426 7.32855C57.8748 7.35599 57.6554 10.1545 57.6554 10.1545H50.9302Z" fill="#00A19B"/>
<path d="M90.8771 10.3525L88.8719 9.51112C87.4688 8.9471 86.4087 8.53257 86.5946 7.95332C86.6983 7.62716 87.3412 7.41379 89.2651 7.41379C90.996 7.41379 92.9263 7.62413 95.1573 8.04177L95.2857 8.0661L95.3009 7.93808L95.5442 5.42924L95.5569 5.31638L95.4437 5.29508C94.575 5.12741 92.2427 4.73114 89.3624 4.67012C89.1638 4.66709 88.966 4.66406 88.7706 4.66406C87.6642 4.66406 86.6249 4.73114 85.6797 4.85917C83.8906 5.10604 80.8691 5.8926 80.7199 8.3862C80.5644 10.9408 83.6194 12.0566 85.4843 12.8308L87.0301 13.4436C88.7953 14.1509 89.6336 14.4069 89.5969 14.9313C89.5634 15.4281 88.8926 15.5531 87.3045 15.5531C87.1067 15.5531 86.8993 15.5501 86.6823 15.5471C84.677 15.5044 81.8414 15.0867 80.7837 14.9038L80.6529 14.8794L80.6433 15.0105L80.4726 17.7236L80.4639 17.8364L80.5795 17.8547C80.6011 17.8578 82.7076 18.1901 87.1888 18.3119C87.4536 18.3181 87.7161 18.3211 87.9785 18.3211C91.2401 18.3211 95.2187 17.8121 95.6542 15.0928C96.0539 12.6022 93.432 11.4895 90.8771 10.3494" fill="#00A19B"/>
<path d="M113.118 12.6603C114.243 6.27383 108.582 5.03006 107.256 4.82881C106.765 4.76484 106.241 4.72216 105.668 4.70996H105.604C99.9733 4.81358 97.7598 7.70353 96.8911 9.8192C96.8273 9.9777 96.6168 10.5508 96.525 11.2367C96.5163 11.3282 96.5075 11.4166 96.4979 11.5111C96.4947 11.5568 96.4891 11.5995 96.4891 11.6421C96.3639 13.5992 96.9031 16.8886 101.638 18.0165C101.897 18.0775 102.165 18.1324 102.452 18.1811C103.43 18.3274 104.19 18.489 106.076 18.489C109.289 18.489 111.35 18.0165 112.228 17.7634C112.322 17.1721 112.511 15.9618 112.658 15.0289C112.225 15.1265 109.606 15.6844 106.756 15.6844C106.665 15.6844 106.579 15.6813 106.494 15.6813C102.525 15.5473 101.735 13.5992 101.729 12.703C101.729 12.703 101.729 12.6878 101.726 12.6603H113.124H113.118ZM101.943 10.1545C102.189 8.75833 103.268 7.34379 105.555 7.32855C108.887 7.35599 108.668 10.1545 108.668 10.1545H101.943Z" fill="#00A19B"/>
</svg>
