<svg width="145" height="35" viewBox="0 0 145 35" fill="none" xmlns="http://www.w3.org/2000/svg">
<path d="M43.1591 3.51393C39.0403 -1.1977 27.1021 -0.698456 17.4355 2.23461C9.78453 4.55611 1.65306 9.0618 0.280132 15.0777C0.00554715 16.07 -0.0755803 17.0934 0.0741935 18.1418C1.67178 29.1502 19.8194 37.8621 31.483 34.1177C41.1933 31.0037 45.9299 20.6256 45.7614 12.3131C45.8738 8.78722 44.9939 5.61701 43.1591 3.51393Z" fill="#00AB4E"/>
<path d="M31.5517 1.4043C27.5016 1.4043 22.7463 2.12196 17.9535 3.56978C10.0842 5.95368 1.67188 10.6965 1.67188 16.856C1.67188 22.1417 8.16207 26.8222 14.5899 29.1187C20.1065 31.0845 24.9617 31.4027 30.8278 30.1733C36.045 29.0812 40.3572 25.1372 42.66 19.3522C44.9315 13.6483 44.6195 7.4951 41.8986 4.38105C40.1762 2.40903 36.357 1.4043 31.5517 1.4043Z" fill="white"/>
<path d="M25.9597 26.1029C25.4979 25.7222 22.0219 22.4085 19.3822 19.9434C19.3073 19.8748 19.2386 19.7937 19.1263 19.6751C19.5881 19.5565 19.9938 19.4629 20.3869 19.3506C22.2965 18.8014 23.5634 17.6032 23.7818 15.5875C23.9128 14.3644 23.813 13.1162 23.7693 11.8806C23.7506 11.3938 23.6195 10.9008 23.476 10.4328C22.8582 8.46077 21.4416 7.39987 19.2948 7.28754C18.003 7.22513 16.705 7.19393 15.4132 7.22513C13.853 7.26882 12.3178 7.66197 10.9574 8.42956C10.7515 8.54813 10.5455 8.6667 10.3396 8.78528C8.51109 9.87114 7.33786 11.787 7.18809 13.9088V13.9462C7.01335 16.4986 6.98839 18.3895 7.45644 20.917C7.49388 21.1291 7.55004 21.3351 7.61245 21.5285C7.81215 22.1526 8.22403 22.683 8.75448 23.0762C9.41598 23.563 10.1274 24.0248 10.8763 24.4554C11.0448 24.549 11.2445 24.4054 11.2195 24.2182C10.9512 22.4397 10.9512 21.3663 10.8388 20.1993C10.8139 19.9247 10.9137 19.8623 11.1696 19.8685C11.9434 19.8873 12.7172 19.8997 13.4911 19.8873C13.853 19.881 14.2025 20.0121 14.4646 20.2555C17.0607 22.6518 18.7768 24.3056 21.3729 26.7082C21.7661 27.0514 22.1218 27.3447 22.465 27.5944C22.9143 27.9251 23.451 28.1061 24.0064 28.0936C25.0049 28.0624 26.3529 27.9563 27.3951 27.8065C27.5698 27.7816 27.6322 27.5569 27.5074 27.4384C26.7773 26.7893 26.5526 26.5896 25.9597 26.1029ZM11.0947 17.391C11.0136 17.391 10.9387 17.3723 10.8201 17.3598C10.8076 17.0852 10.7889 16.8419 10.7827 16.5985C10.7639 14.5328 10.739 12.617 11.0323 10.5763C11.0448 10.4827 11.0635 10.3953 11.0884 10.3017C11.1696 9.95226 11.4754 9.71512 11.8311 9.68392C13.7844 9.49046 16.1496 9.36565 18.5272 9.59031C19.0764 9.64023 19.5007 10.0896 19.5132 10.6387C19.5694 12.3986 19.6193 14.1647 19.638 15.9245C19.6505 16.8606 19.1825 17.3473 18.2339 17.3598C15.8562 17.391 13.4724 17.3848 11.0947 17.391Z" fill="#ED1C24"/>
<path d="M40.2638 9.37309C40.3575 9.51039 40.2638 9.6976 40.0953 9.68512C37.4743 9.56655 33.0934 9.54159 32.1636 9.91603C30.6783 10.5151 30.0231 11.4138 30.0231 13.0363C29.9856 13.3359 29.9669 17.2799 30.0231 17.7667C30.0231 19.3892 30.6783 20.2879 32.1636 20.887C33.343 21.3612 35.7831 21.4673 38.8535 21.1241C39.1967 21.0867 39.4775 21.1366 39.3465 21.3924C39.1655 21.7669 39.0532 22.1101 38.5602 22.703C38.1545 23.1835 37.8737 23.4518 36.9064 23.5267C35.7207 23.6203 32.7065 23.976 30.697 23.4581C28.75 22.9526 26.9652 21.9229 26.3099 19.8198C25.9168 18.5655 25.9417 16.1192 25.9417 15.1394C25.9417 14.1596 25.9792 12.6432 26.2038 11.6571C26.7156 9.41678 28.1883 7.98769 30.7907 7.47596C32.3071 7.17641 35.7394 7.30123 37.6178 7.451C38.2793 7.50092 38.8972 7.80047 39.3465 8.29348C39.6585 8.61799 39.9955 8.9737 40.2638 9.37309Z" fill="#ED1C24"/>
<path d="M142.712 9.81563C142.631 9.72826 142.531 9.65337 142.406 9.57848C142.656 9.54104 142.843 9.45367 142.968 9.31638C143.093 9.17909 143.155 9.00435 143.155 8.79217C143.155 8.62368 143.111 8.4739 143.03 8.34909C142.943 8.21804 142.837 8.13067 142.7 8.08075C142.562 8.03082 142.344 8.00586 142.038 8.00586H140.84V10.8328H141.408V9.65337H141.52C141.651 9.65337 141.745 9.66585 141.807 9.68457C141.87 9.70954 141.926 9.74698 141.976 9.80315C142.032 9.85931 142.132 9.9966 142.275 10.215L142.687 10.8328H143.374L143.024 10.2837C142.905 10.0528 142.793 9.903 142.712 9.81563ZM141.414 9.19781V8.48014C141.414 8.48014 142.231 8.48014 142.275 8.48638C142.369 8.49887 142.437 8.53631 142.494 8.59871C142.544 8.65488 142.568 8.73601 142.568 8.82962C142.568 8.91074 142.55 8.98563 142.512 9.04179C142.475 9.09796 142.419 9.14164 142.35 9.16036C142.275 9.18533 141.414 9.19781 141.414 9.19781Z" fill="#4D4D4F"/>
<path d="M141.912 6.4707C140.271 6.4707 138.936 7.80619 138.936 9.44746C138.936 11.0887 140.271 12.4242 141.912 12.4242C143.554 12.4242 144.889 11.0887 144.889 9.44746C144.889 7.80619 143.554 6.4707 141.912 6.4707ZM141.912 11.6629C140.689 11.6629 139.691 10.6644 139.691 9.44122C139.691 8.21806 140.683 7.22581 141.912 7.22581C143.135 7.22581 144.128 8.21806 144.128 9.44122C144.134 10.6706 143.135 11.6629 141.912 11.6629Z" fill="#4D4D4F"/>
<path d="M104.125 7.44531C103.794 7.44531 103.476 7.56389 103.22 7.77606L99.6632 10.809C99.3574 11.0711 98.9018 11.0773 98.5898 10.8215L94.8642 7.80103C94.5771 7.57012 94.2214 7.44531 93.8532 7.44531H90.2773L96.961 13.0057V17.3491H99.9065L99.9128 13.0057L106.203 7.44531H104.125Z" fill="#4D4D4F"/>
<path d="M137.354 15.6676H128.573C127.943 15.6676 127.431 15.1434 127.431 14.5006L127.425 7.99797C127.425 7.53616 127.057 7.16797 126.595 7.16797H124.398V15.5428C124.398 16.4602 125.141 17.2028 126.052 17.2028H138.877C138.877 16.3603 138.196 15.6676 137.354 15.6676Z" fill="#4D4D4F"/>
<path d="M89.5497 13.0614V11.7384C89.5497 9.37327 87.6276 7.45117 85.2624 7.45117H78.1232C75.758 7.45117 73.8359 9.37327 73.8359 11.7384V13.0614C73.8359 15.4266 75.758 17.3487 78.1232 17.3487H85.2624C87.6214 17.3487 89.5497 15.4266 89.5497 13.0614ZM79.2028 15.851C77.8112 15.851 76.6816 14.7214 76.6816 13.3298V11.4514C76.6816 10.0597 77.8112 8.93019 79.2028 8.93019H84.1766C85.5682 8.93019 86.6978 10.0597 86.6978 11.4514V13.3298C86.6978 14.7214 85.5682 15.851 84.1766 15.851H79.2028Z" fill="#4D4D4F"/>
<path d="M70.7036 17.3475C70.7784 17.3475 70.8346 17.2914 70.8346 17.2165C70.8346 17.1603 70.7972 17.1104 70.7472 17.0917C70.1419 16.8545 69.5927 16.4676 69.1684 15.9684C68.3758 15.0323 67.4522 13.9402 67.3336 13.8154H68.9812C70.1107 13.8154 71.0343 12.8918 71.0343 11.7622V9.49065C71.0343 8.36111 70.1107 7.4375 68.9812 7.4375H58.7216H57.0741C56.6186 7.4375 56.2504 7.80569 56.2504 8.26126V14.4207H56.2441L56.2504 15.4254V17.3351H59.0462V13.8029H63.8327C64.3943 14.4706 66.0294 16.6111 66.0294 16.6111C66.1729 16.7672 66.41 17.0043 66.7158 17.1603C66.8843 17.2477 67.1215 17.3351 67.4522 17.3351H69.5803H70.3354H70.7036V17.3475ZM59.0524 12.3114V9.77772C59.0524 9.32215 59.4268 8.94772 59.8824 8.94772H67.3648C67.8266 8.94772 68.2011 9.32215 68.2011 9.78396V11.4876C68.2011 11.9432 67.8329 12.3114 67.3773 12.3114H59.0524Z" fill="#4D4D4F"/>
<path d="M122.225 17.2169C122.225 17.1607 122.188 17.1108 122.138 17.0921C121.432 16.7863 120.827 16.2808 120.403 15.6255L115.56 8.21171C115.242 7.72495 114.705 7.43164 114.125 7.43164H113.108C112.558 7.43164 112.04 7.70623 111.728 8.15555L105.432 17.3354H107.341L109.582 14.0217H115.666L117.339 16.6178C117.626 17.0608 118.119 17.3354 118.649 17.3354L122.094 17.3417C122.169 17.3479 122.225 17.2917 122.225 17.2169ZM110.337 12.9171L111.972 10.5082C112.303 10.0215 113.026 10.0215 113.351 10.5145L114.936 12.9171H110.337Z" fill="#4D4D4F"/>
<path d="M70.6075 21.1758H64.1672C63.6368 21.1758 63.0252 21.2195 62.5447 21.5377C61.877 21.9933 61.877 22.7234 61.877 22.9668V27.5162C61.877 27.978 61.9518 28.5022 62.5072 28.9141C63.0003 29.2636 63.5994 29.3135 64.1672 29.3135H70.6075C71.3314 29.3135 71.9243 28.7206 71.9243 27.9967V27.641H64.7539C64.5916 27.641 64.3295 27.641 64.2047 27.5599C64.1173 27.4975 64.1048 27.4039 64.1048 27.2167V23.2726C64.1048 23.1977 64.1048 23.0043 64.1922 22.9356C64.3108 22.8483 64.629 22.8483 64.7476 22.8483H71.918V22.4988C71.918 21.7686 71.3314 21.1758 70.6075 21.1758Z" fill="#4D4D4F"/>
<path d="M88.5814 27.5786H81.9913C81.7667 27.5786 81.5857 27.3976 81.5857 27.173V22.2304C81.5857 21.6501 81.1114 21.1758 80.531 21.1758H79.3516V28.2401C79.3516 28.8267 79.8321 29.3073 80.4187 29.3073H89.9543V28.9515C89.9481 28.1964 89.3365 27.5786 88.5814 27.5786Z" fill="#4D4D4F"/>
<path d="M118.229 21.1758C117.923 21.1758 117.636 21.3068 117.436 21.5377L113.711 25.7252C113.661 25.7813 113.567 25.7813 113.523 25.7314L109.748 21.5128C109.548 21.3006 109.274 21.1758 108.98 21.1758H107.576V29.3073H109.692V24.0652C109.979 24.3772 110.335 24.7704 110.715 25.1885C111.558 26.1183 112.494 27.148 112.949 27.6223C113.124 27.8033 113.367 27.9094 113.636 27.9094C113.892 27.9031 114.141 27.7908 114.31 27.5973L114.522 27.3602C115.065 26.7486 115.945 25.8063 116.7 24.9888C117.018 24.6455 117.318 24.3273 117.561 24.0652C117.561 25.3507 117.567 27.5973 117.567 28.5334V29.3073H119.677V21.1758H118.229Z" fill="#4D4D4F"/>
<path d="M99.613 21.1758H97.3789V29.3073H99.613V21.1758Z" fill="#4D4D4F"/>
<path d="M127.431 29.3365L128.61 27.7077H135.506L136.679 29.3365H139.232L133.79 21.8228C133.484 21.3984 132.979 21.1426 132.436 21.1426H131.687C131.138 21.1426 130.632 21.3984 130.32 21.829L124.885 29.3302H127.431V29.3365ZM131.338 23.7699C131.525 23.514 131.812 23.358 132.118 23.3705C132.411 23.3767 132.667 23.5327 132.829 23.7886L134.863 26.6093H129.291L131.338 23.7699Z" fill="#4D4D4F"/>
</svg>
