<svg width="161" height="49" viewBox="0 0 161 49" fill="none" xmlns="http://www.w3.org/2000/svg">
<path d="M51.8396 15.8063V4.66626H57.0414V15.6435C57.0414 17.8607 58.4678 19.4577 61.2354 19.4577C64.003 19.4577 65.3984 17.8607 65.3984 15.6435V4.66626H70.5459V15.7831C70.5459 20.4345 67.5768 23.7214 61.2432 23.7214C54.9095 23.7214 51.8396 20.4112 51.8396 15.8063Z" fill="#4D4D4D"/>
<path d="M73.903 23.3881V4.66626H79.0117V19.1786H86.9889V23.3881H73.903Z" fill="#4D4D4D"/>
<path d="M90.9113 23.3881V8.87576H85.3451V4.66626H101.555V8.87576H96.0278V23.3881H90.9113Z" fill="#4D4D4D"/>
<path d="M103.99 23.3881V4.66626H109.106V23.3881H103.99Z" fill="#4D4D4D"/>
<path d="M131.557 23.3881V10.9844L126.565 23.3881H124.301L119.277 10.9844V23.3881H114.161V4.66626H121.27L125.433 14.9923L129.565 4.66626H136.674V23.3881H131.557Z" fill="#4D4D4D"/>
<path d="M155.201 23.3881L154.217 20.6903H146.395L145.418 23.3881H139.611L147.077 4.66626H153.534L161 23.3881H155.201ZM150.317 9.43393L147.79 16.473H152.821L150.317 9.43393Z" fill="#4D4D4D"/>
<path d="M63.0574 43.8698C62.5576 44.0824 62.0384 44.2459 61.5069 44.3582C60.6743 44.5382 59.8237 44.6214 58.9719 44.6062C58.1448 44.6193 57.3222 44.48 56.5455 44.1954C55.8774 43.951 55.2732 43.5588 54.7779 43.048C54.2863 42.5298 53.9133 41.9108 53.6849 41.234C53.4242 40.4573 53.2958 39.6423 53.305 38.823C53.3009 38.032 53.4293 37.2459 53.6849 36.4973C53.916 35.8119 54.2974 35.1868 54.8012 34.6678C55.3196 34.1429 55.9467 33.738 56.6385 33.4817C57.4688 33.1845 58.346 33.0401 59.2278 33.0553C59.9613 33.0372 60.6933 33.1313 61.3984 33.3344C61.8989 33.4859 62.3863 33.6778 62.8559 33.9081L62.9954 33.9856L63.6311 32.5436L63.5691 32.4739C63.3673 32.3669 63.1573 32.2761 62.9411 32.2025C62.6252 32.0804 62.3014 31.9794 61.9721 31.9002C61.5359 31.7877 61.0932 31.7022 60.6464 31.6444C60.0935 31.5766 59.5368 31.5429 58.9797 31.5436C58.0041 31.5429 57.0351 31.7027 56.1113 32.0165C55.2207 32.3206 54.3987 32.7974 53.6926 33.4197C52.9767 34.0699 52.4039 34.8619 52.0104 35.7454C51.5798 36.7216 51.3656 37.7794 51.3824 38.8463C51.3638 39.9087 51.5616 40.9637 51.9638 41.9472C52.3203 42.8296 52.8653 43.6233 53.5608 44.2729C54.2497 44.9024 55.0594 45.3851 55.9408 45.6916C56.8884 46.0178 57.8846 46.1803 58.8867 46.1722C59.4821 46.1739 60.0772 46.1455 60.6697 46.0869C61.1437 46.034 61.6147 45.9564 62.0806 45.8544C62.4992 45.7613 62.8558 45.6683 63.0962 45.583C63.2999 45.5223 63.4972 45.4418 63.6853 45.3427L63.7939 45.273L63.2512 43.8543L63.0574 43.8698Z" fill="#4D4D4D"/>
<path d="M78.6627 33.3576C77.9384 32.7419 77.101 32.2732 76.1975 31.9777C74.2772 31.3577 72.2105 31.3577 70.2902 31.9777C69.3882 32.2715 68.5531 32.7405 67.8327 33.3576C67.1145 33.9905 66.5407 34.7704 66.1505 35.6446C65.3232 37.6721 65.3232 39.943 66.1505 41.9704C66.5326 42.8604 67.1071 43.6546 67.8327 44.2961C68.5508 44.9185 69.3864 45.3903 70.2902 45.6838C72.2121 46.2935 74.2756 46.2935 76.1975 45.6838C77.1028 45.3886 77.9407 44.917 78.6627 44.2961C79.3836 43.6521 79.9551 42.8584 80.3372 41.9704C81.1644 39.943 81.1644 37.6721 80.3372 35.6446C79.9471 34.7724 79.3764 33.9929 78.6627 33.3576ZM73.2361 44.6062C72.4267 44.6174 71.6223 44.478 70.8639 44.1954C70.1884 43.9476 69.5747 43.5562 69.0653 43.048C68.5571 42.5313 68.1635 41.9131 67.9102 41.234C67.3727 39.6583 67.3727 37.9489 67.9102 36.3733C68.1635 35.6941 68.5571 35.076 69.0653 34.5592C69.5739 34.0519 70.188 33.6628 70.8639 33.4196C71.6243 33.146 72.428 33.012 73.2361 33.0243C74.0466 33.0128 74.8527 33.1467 75.616 33.4196C76.2887 33.6648 76.8999 34.0537 77.4068 34.5592C77.9168 35.0777 78.3105 35.6987 78.5619 36.381C79.1096 37.9523 79.1096 39.6627 78.5619 41.234C78.3087 41.9131 77.9151 42.5313 77.4068 43.048C76.9003 43.556 76.2892 43.9475 75.616 44.1954C74.8571 44.4765 74.0531 44.6158 73.2438 44.6062H73.2361Z" fill="#4D4D4D"/>
<path d="M100.602 38.4973C100.424 36.2259 100.199 34.0165 99.9351 31.9466V31.8148H98.3847L98.3382 31.8769C97.873 32.528 97.3691 33.3033 96.842 34.2025C96.3148 35.1018 95.7877 35.9546 95.2915 36.8926C94.7954 37.8306 94.2682 38.7376 93.7798 39.6447C93.3612 40.4199 93.0046 41.1409 92.617 41.8231C92.2759 41.1719 91.8882 40.4354 91.4541 39.6447C91.02 38.8539 90.4618 37.8229 89.9037 36.8926C89.3455 35.9623 88.8571 35.0631 88.3532 34.2025C87.8493 33.342 87.3144 32.5591 86.8492 31.8769V31.8148H85.2368V31.9466C84.9732 34.0165 84.7484 36.2259 84.5701 38.4973C84.3918 40.7687 84.2367 43.1487 84.0972 45.6527V45.8155H85.9577V45.6527C86.0508 43.5441 86.1593 41.4975 86.2678 39.5749C86.3764 37.8229 86.5236 36.1639 86.6942 34.6444C86.795 34.8072 86.919 35.001 87.0508 35.2258C87.3144 35.6755 87.6167 36.1949 87.9578 36.7763C88.2989 37.3577 88.6633 38.0012 89.0354 38.6756C89.4075 39.3501 89.8106 40.0168 90.1285 40.6525C90.4463 41.2881 90.8107 41.8851 91.0975 42.42C91.3843 42.9549 91.6092 43.389 91.7642 43.7224L91.803 43.8076H93.4155L93.4542 43.7224C93.617 43.3813 93.8418 42.9471 94.1132 42.42C94.3845 41.8928 94.7256 41.2959 95.0822 40.6525C95.4388 40.009 95.8032 39.3578 96.1753 38.6756C96.5474 37.9934 96.904 37.3655 97.2451 36.7763C97.5862 36.1871 97.8808 35.66 98.1521 35.2258L98.501 34.6444C98.6793 36.1949 98.8188 37.8229 98.9273 39.5749C99.0436 41.5285 99.1444 43.5751 99.2374 45.6527V45.8H101.145V45.6527C100.935 43.172 100.78 40.7687 100.602 38.4973Z" fill="#4D4D4D"/>
<path d="M104.773 45.8155H106.656V39.2725H113.401V37.7996H106.656V33.28H114.269V31.8148H104.773V45.8155Z" fill="#4D4D4D"/>
<path d="M129.58 33.3576C128.856 32.7419 128.019 32.2732 127.115 31.9777C125.195 31.3577 123.128 31.3577 121.208 31.9777C120.306 32.2715 119.471 32.7405 118.75 33.3576C118.032 33.9905 117.458 34.7704 117.068 35.6446C116.241 37.6721 116.241 39.943 117.068 41.9704C117.45 42.8604 118.025 43.6546 118.75 44.2961C119.468 44.9185 120.304 45.3903 121.208 45.6838C123.13 46.2935 125.193 46.2935 127.115 45.6838C128.02 45.3886 128.858 44.917 129.58 44.2961C130.301 43.6521 130.873 42.8584 131.255 41.9704C132.082 39.943 132.082 37.6721 131.255 35.6446C130.865 34.7724 130.294 33.9929 129.58 33.3576ZM124.154 44.6062C123.344 44.6174 122.54 44.478 121.781 44.1954C121.107 43.9457 120.494 43.5545 119.983 43.048C119.475 42.5313 119.081 41.9131 118.828 41.234C118.29 39.661 118.29 37.954 118.828 36.381C119.079 35.6987 119.473 35.0777 119.983 34.5592C120.492 34.0569 121.103 33.6685 121.774 33.4196C123.316 32.8928 124.991 32.8928 126.534 33.4196C127.206 33.6648 127.817 34.0537 128.324 34.5592C128.823 35.0714 129.211 35.681 129.464 36.35C130.012 37.9213 130.012 39.6317 129.464 41.203C129.211 41.8821 128.817 42.5003 128.309 43.017C127.802 43.525 127.191 43.9165 126.518 44.1643C125.766 44.4542 124.967 44.604 124.161 44.6062H124.154Z" fill="#4D4D4D"/>
<path d="M146.317 43.9163C145.906 43.3271 145.488 42.7612 145.077 42.2418C144.666 41.7224 144.247 41.2107 143.852 40.7611C143.457 40.3114 143.278 40.1099 143.077 39.8696C143.94 39.6427 144.736 39.215 145.402 38.6214C145.74 38.2926 146.003 37.8959 146.176 37.4575C146.348 37.0191 146.425 36.5492 146.403 36.0787C146.432 35.423 146.285 34.7713 145.977 34.1918C145.669 33.6122 145.211 33.126 144.651 32.7839C143.079 31.9626 141.312 31.5872 139.542 31.6986C138.898 31.6986 138.201 31.6986 137.441 31.7917C136.773 31.8395 136.11 31.9354 135.456 32.0785H135.34V45.7923H137.216V40.2572H139.674C140.146 40.2572 140.619 40.2572 141.092 40.2029L142.022 41.2572C142.395 41.6758 142.798 42.141 143.17 42.6216C143.542 43.1023 143.945 43.6217 144.325 44.1721C144.705 44.7225 145.054 45.2187 145.379 45.7226L145.426 45.7923H147.457L147.341 45.5675C147.034 44.9967 146.692 44.4453 146.317 43.9163ZM144.046 37.5284C143.767 37.8959 143.395 38.1823 142.968 38.3579C142.44 38.568 141.884 38.6961 141.317 38.7377C140.674 38.7997 139.984 38.8308 139.263 38.8308H137.216V33.2878L138.177 33.2103C138.619 33.2103 139.139 33.1638 139.728 33.1638C140.322 33.1611 140.915 33.2025 141.503 33.2878C142.026 33.3595 142.535 33.5166 143.007 33.753C143.422 33.9585 143.78 34.265 144.046 34.6445C144.318 35.0633 144.454 35.5563 144.433 36.0554C144.461 36.5748 144.325 37.0897 144.046 37.5284Z" fill="#4D4D4D"/>
<path d="M148.271 31.8148V33.28H153.434V45.8155H155.325V33.28H160.488V31.8148H148.271Z" fill="#4D4D4D"/>
<path d="M40.5137 7.85234C38.3384 5.6376 35.7449 3.87696 32.8837 2.6726C30.0225 1.46823 26.9505 0.844123 23.8462 0.836507H23.7067C17.4357 0.820059 11.4151 3.2954 6.96927 7.71799C2.52342 12.1406 0.0165298 18.1481 8.14512e-05 24.419C-0.0163669 30.69 2.45898 36.7106 6.88156 41.1564C11.3041 45.6023 17.3117 48.1092 23.5826 48.1256H23.7144C28.3761 48.1249 32.9334 46.7453 36.8128 44.1605C40.6922 41.5757 43.7204 37.9012 45.5162 33.5993C47.3121 29.2974 47.7953 24.5604 46.9051 19.9845C46.015 15.4086 43.7912 11.1983 40.5137 7.88336V7.85234ZM38.6764 30.8535C37.3349 32.1901 35.7366 33.2411 33.9779 33.9433C32.2192 34.6454 30.3365 34.9841 28.4433 34.9389C24.5651 34.8754 20.8685 33.2848 18.156 30.5124C15.4324 27.7982 13.8938 24.1164 13.8764 20.2714C13.859 16.4264 15.3641 12.7307 18.063 9.99199C20.7215 7.36075 24.3152 5.89149 28.0557 5.90653H28.296C28.974 5.92165 29.65 5.98381 30.3194 6.09257C27.1781 6.06575 24.1539 7.28377 21.9081 9.48033C17.1792 14.1317 17.2567 21.9616 22.1174 26.8765C23.2828 28.077 24.6752 29.0338 26.2137 29.6913C27.7522 30.3487 29.4061 30.6937 31.0791 30.7062H31.1566C34.0262 30.7331 36.8052 29.7023 38.963 27.8105C41.1208 25.9186 42.5063 23.2983 42.8549 20.4498C42.9035 22.3771 42.558 24.294 41.8395 26.083C41.121 27.8719 40.0446 29.4953 38.6764 30.8535ZM38.4438 17.5195C37.8015 18.1194 36.9503 18.4449 36.0716 18.4265C35.4438 18.4065 34.8261 18.2627 34.254 18.0033C33.6819 17.7439 33.1668 17.3739 32.7381 16.9148C31.0326 15.1628 30.8155 12.5813 32.2575 11.1626C32.882 10.5634 33.7177 10.2346 34.5832 10.2478H34.6297C35.8957 10.2965 37.0924 10.8391 37.9632 11.7595C39.6764 13.5115 39.8935 16.1008 38.4438 17.5195ZM34.6452 9.56562C34.118 9.54602 33.5924 9.63422 33.1005 9.82484C32.6087 10.0155 32.1609 10.3045 31.7846 10.6742C30.0713 12.3564 30.2806 15.3721 32.2497 17.3877C33.2435 18.4432 34.6149 19.062 36.0638 19.1087H36.1104C36.6293 19.1185 37.1451 19.0256 37.6281 18.8353C38.111 18.6451 38.5516 18.3612 38.9244 18.0001C39.4308 17.4704 39.7907 16.8181 39.9687 16.1073C40.1468 15.3964 40.1369 14.6515 39.94 13.9457C40.529 15.2711 40.7086 16.7422 40.4559 18.1705C40.2031 19.5987 39.5295 20.9188 38.5213 21.9616C37.8764 22.5939 37.113 23.0926 36.2749 23.4292C35.4368 23.7657 34.5405 23.9335 33.6374 23.9229H33.5753C31.4245 23.8808 29.3771 22.9922 27.8774 21.4499C24.8463 18.349 24.6912 13.5658 27.5285 10.7672C28.174 10.1356 28.9375 9.63732 29.7755 9.30079C30.6134 8.96426 31.5095 8.7961 32.4125 8.80588H32.4745C33.8775 8.82795 35.2497 9.22114 36.4515 9.94547C35.8775 9.7099 35.2654 9.58117 34.6452 9.56562ZM32.4823 7.82908C30.381 7.80767 28.356 8.61545 26.8463 10.0773C23.6214 13.2557 23.7454 18.6591 27.1797 22.1321C28.8639 23.8609 31.1622 24.8555 33.5753 24.8997H33.6374C34.6931 24.9185 35.7415 24.7214 36.7183 24.3206C37.6952 23.9198 38.5798 23.3236 39.3181 22.5687C40.0563 21.8138 40.6325 20.916 41.0114 19.9304C41.3903 18.9449 41.5639 17.8923 41.5215 16.8373C41.8527 18.5505 41.7595 20.3187 41.25 21.9876C40.7406 23.6564 39.8304 25.1752 38.5988 26.4114C36.6144 28.3611 33.9385 29.4454 31.1566 29.427H31.0869C29.58 29.417 28.0902 29.1067 26.7046 28.5144C25.3189 27.9221 24.0652 27.0596 23.0167 25.9773C18.6599 21.5584 18.5591 14.5581 22.7996 10.3718C23.7792 9.40385 24.9401 8.63857 26.2158 8.11977C27.4915 7.60098 28.857 7.33886 30.2341 7.34844H30.3116C31.531 7.36155 32.7404 7.57097 33.8932 7.96864C33.427 7.88727 32.9554 7.84061 32.4823 7.82908ZM25.8851 4.44133H26.2882C22.7779 4.82387 19.4998 6.38099 16.9854 8.86016C14.7669 11.1411 13.2654 14.0221 12.6666 17.1472C12.0677 20.2722 12.3978 23.5042 13.616 26.4437C14.8342 29.3832 16.8871 31.9013 19.5209 33.6866C22.1547 35.472 25.2539 36.4464 28.4356 36.4894H28.6836C32.1441 36.5051 35.512 35.3718 38.259 33.2674C41.0061 31.1629 42.977 28.2062 43.8627 24.8609C43.3251 29.1621 41.2325 33.118 37.9794 35.9826C34.7263 38.8473 30.5375 40.4228 26.2029 40.4121H26.0168C22.4564 40.3778 18.985 39.2947 16.0368 37.2982C13.0885 35.3017 10.7943 32.4804 9.44087 29.187C8.08745 25.8936 7.73492 22.2743 8.42737 18.7817C9.11982 15.289 10.8265 12.078 13.3341 9.5501C16.6777 6.25463 21.1905 4.41774 25.8851 4.44133ZM38.8237 39.7454C34.8083 43.7335 29.3737 45.9642 23.7144 45.9472H23.5981C18.1111 45.9345 12.8368 43.8226 8.85746 40.0447C4.87808 36.2668 2.49522 31.1093 2.19772 25.6303C1.90022 20.1513 3.71062 14.7662 7.25754 10.5796C10.8045 6.39301 15.819 3.72243 21.2724 3.11569C17.7773 3.94874 14.5797 5.72992 12.0317 8.26321C9.26723 11.0479 7.38478 14.5855 6.61956 18.434C5.85433 22.2825 6.24028 26.2712 7.72916 29.9016C9.21805 33.532 11.7438 36.6431 14.9909 38.8461C18.2379 41.0491 22.0622 42.2463 25.9858 42.2881H26.1874C30.1565 42.2927 34.0339 41.0953 37.3093 38.8535C40.5847 36.6118 43.1045 33.4309 44.5371 29.7294C43.5859 33.5283 41.6095 36.993 38.8237 39.7454Z" fill="url(#paint0_linear_34_353)"/>
<defs>
<linearGradient id="paint0_linear_34_353" x1="7.00817" y1="41.1795" x2="40.4206" y2="7.75932" gradientUnits="userSpaceOnUse">
<stop stop-color="#FBB040"/>
<stop offset="1" stop-color="#F25B30"/>
</linearGradient>
</defs>
</svg>
