<svg width="153" height="48" viewBox="0 0 153 48" fill="none" xmlns="http://www.w3.org/2000/svg">
<path d="M19.0934 30.4163C11.8113 26.9528 5.59482 26.1092 0 26.9084C0.13321 27.8853 0.310824 28.8622 0.53284 29.7946C5.41721 30.9047 11.012 33.0805 17.4061 36.9436C23.0453 40.3182 27.4413 43.6041 30.9047 46.9343C32.2812 46.4903 33.6133 45.9574 34.8566 45.2914C31.3487 39.2969 24.8659 33.1693 19.0934 30.4163Z" fill="#E84E0F"/>
<path d="M45.1582 13.0102C43.3377 9.41351 40.6291 6.39408 37.2989 4.12951C35.3451 3.01943 33.5246 2.13136 31.7484 1.3321C29.2619 0.444033 26.5977 0 23.8446 0C23.0898 0 22.3349 0.0444037 21.5801 0.088807C26.0204 1.24329 30.7272 3.10823 35.8335 6.12766C39.2082 8.17021 42.3164 10.5236 45.1582 13.0102Z" fill="#009879"/>
<path d="M47.8225 23.4894C47.7781 21.9352 47.6005 20.4255 47.2896 19.0046C44.2702 14.1647 40.3627 10.346 35.5228 7.50415C28.1518 3.10822 20.9585 1.77612 14.52 1.82053C12.9659 2.48658 11.5006 3.28584 10.1685 4.21831C16.0741 4.97316 22.6458 6.97131 30.1944 10.8788C37.5209 14.6531 43.4266 18.8714 47.8225 23.4894Z" fill="#009879"/>
<path d="M14.7862 38.7197C10.4347 36.6771 6.43838 35.6558 2.7085 35.3894C3.37455 36.6771 4.1738 37.876 5.10627 38.9861C8.03689 40.0962 11.1007 41.4727 14.0757 43.2044C16.6067 44.6253 18.8713 46.2238 20.9583 47.8223C21.8907 47.9111 22.8676 48 23.8445 48C24.6437 48 25.4874 47.9555 26.2423 47.8667C22.912 44.0925 18.6937 40.5846 14.7862 38.7197Z" fill="#E84E0F"/>
<path d="M30.4162 36.544C27.6632 33.5246 24.6437 30.9936 21.7131 29.3507C15.7187 26.0204 10.4347 24.5551 5.55029 24.4663C9.72421 25.532 14.3422 27.2637 19.4485 29.9279C23.7557 32.1037 27.3523 34.2794 30.4162 36.544Z" fill="#005CA9"/>
<path d="M31.6152 13.3211C20.7364 7.32661 12.0333 7.45982 5.99446 7.94826H5.95006C4.79557 9.23595 3.7743 10.7013 2.88623 12.211C9.85755 12.4774 18.0278 14.2979 27.5301 19.9816C35.3007 24.6439 40.8955 30.0167 44.9362 35.3895C45.9131 33.5246 46.7123 31.5264 47.2008 29.4395C43.4265 22.1573 37.2988 16.4293 31.6152 13.3211Z" fill="#005CA9"/>
<path d="M24.4663 20.7364C16.3849 16.8289 9.8576 15.3636 3.72994 16.1184C3.55233 16.1628 3.41912 16.1628 3.2415 16.2072C3.01949 16.2516 2.84187 16.2516 2.66426 16.296C2.13142 16.3848 1.55418 16.4736 1.02134 16.6068C0.577303 17.9834 0.26648 19.3599 0.0888672 20.8252C6.30533 21.4024 13.5431 23.667 22.1573 28.8178C29.6171 33.2581 35.0787 37.7872 39.0306 42.5384C40.2739 41.5615 41.384 40.407 42.3608 39.2081C38.9862 31.704 31.3044 24.0222 24.4663 20.7364Z" fill="#005CA9"/>
<path d="M25.0878 44.0037C22.5124 41.2507 19.6706 38.8973 16.962 37.3876C11.5004 34.3682 6.57162 33.0361 2.04248 32.9473C5.94997 34.0129 10.3459 35.7003 15.1859 38.1869C19.049 40.185 22.3348 42.1388 25.0878 44.0037Z" fill="#E84E0F"/>
<path d="M7.50391 41.5615C10.3013 44.1813 13.7648 46.0907 17.5835 47.1563C16.1626 45.9574 14.7417 44.9362 13.3207 44.1369C11.3226 43.0712 9.36885 42.2276 7.50391 41.5615Z" fill="#E84E0F"/>
<path d="M115.227 25.3543H115.271C117.713 25.3543 119.756 24.9103 121.399 23.9778C123.042 23.0453 124.285 21.7576 125.173 20.1147C126.061 18.4718 126.461 16.3404 126.461 13.765C126.461 12.1221 126.239 10.6568 125.839 9.36912L116.514 8.21463C117.269 8.43665 117.891 8.79187 118.424 9.32471C119.267 10.2128 119.667 11.8113 119.667 13.6762C119.667 15.8964 119.267 17.4505 118.468 18.3386C117.669 19.1823 116.603 19.5819 115.227 19.6263H115.271H98.2203V2.53101H91.1157V25.3543H115.227Z" fill="#505050"/>
<path d="M76.5511 20.4699H63.2746L76.0627 7.10455V2.53101H56.1256V7.41537H67.5817L54.8823 20.6476V25.3543H76.5511V20.4699Z" fill="#505050"/>
<path d="M87.0748 2.53101H80.0146V25.3543H87.0748V2.53101Z" fill="#505050"/>
<path d="M145.821 2.53101V15.186L137.207 2.53101H115.049H115.005C111.408 2.53101 108.611 3.55228 106.613 5.55043C104.615 7.54858 103.593 10.346 103.593 13.9871C103.593 15.63 103.815 17.0509 104.215 18.3386L113.495 19.4931C112.785 19.2711 112.163 18.9158 111.675 18.383C110.831 17.4949 110.431 16.0296 110.431 14.0315C110.431 12.0333 110.831 10.3016 111.675 9.41352C112.518 8.52545 113.628 8.08142 115.005 8.08142H115.049H130.635V25.3987H137.295V12.8326L145.865 25.3543H152.526V2.53101H145.821Z" fill="#505050"/>
<path d="M55.8592 32.6808H58.923V37.1211H59.8999V31.7927H54.8823V37.1211H55.8592V32.6808Z" fill="#505050"/>
<path d="M61.0547 31.7927V37.1211H62.0316V35.3006H64.6514C65.5394 35.3006 65.8946 34.9454 65.8946 34.0573V33.0804C65.8946 32.1924 65.5394 31.8371 64.6514 31.8371L61.0547 31.7927ZM64.9622 33.2136V33.9241C64.9622 34.4125 64.829 34.5457 64.2961 34.5457H62.0316V32.5476H64.2961C64.7846 32.592 64.9622 32.7252 64.9622 33.2136Z" fill="#505050"/>
<path d="M68.2036 31.7927C67.2267 31.7927 66.7827 32.2368 66.7827 33.2136V35.7002C66.7827 36.6771 67.2267 37.1211 68.2036 37.1211H70.6014C71.5783 37.1211 72.0223 36.6771 72.0223 35.7002V33.2136C72.0223 32.2368 71.5783 31.7927 70.6014 31.7927H68.2036ZM71.0454 33.3912V35.5226C71.0454 36.0554 70.8234 36.2775 70.2906 36.2775H68.5144C67.9816 36.2775 67.7596 36.0998 67.7596 35.5226V33.3912C67.7596 32.814 67.9816 32.6364 68.5144 32.6364H70.2906C70.8234 32.6364 71.0454 32.8584 71.0454 33.3912Z" fill="#505050"/>
<path d="M76.0185 31.4819V32.148H74.4644C73.4875 32.148 73.0435 32.592 73.0435 33.5689V35.345C73.0435 36.3219 73.4875 36.7659 74.4644 36.7659H76.0185V37.432H76.951V36.7659H78.5051C79.4819 36.7659 79.926 36.3219 79.926 35.345V33.5689C79.926 32.592 79.4819 32.148 78.5051 32.148H76.9065V31.4819H76.0185ZM76.0185 36.0555H74.8196C74.2868 36.0555 74.0647 35.8335 74.0647 35.3006V33.6577C74.0647 33.1249 74.2868 32.9028 74.8196 32.9028H76.0185V36.0555ZM78.1498 32.8584C78.6827 32.8584 78.9047 33.0805 78.9047 33.6133V35.2562C78.9047 35.7891 78.6827 36.0111 78.1498 36.0111H76.9065V32.8584C76.9065 32.9028 78.1498 32.9028 78.1498 32.8584Z" fill="#505050"/>
<path d="M85.2988 32.592V31.7927H80.9473V37.1211H85.3876V36.3219H81.9241V34.7233H84.988V33.9685H81.9241V32.592H85.2988Z" fill="#505050"/>
<path d="M86.2314 33.2137V35.7003C86.2314 36.6772 86.6755 37.1212 87.6524 37.1212H89.8725C90.8494 37.1212 91.2934 36.6772 91.2934 35.7003V35.0787H90.361V35.5227C90.361 36.0555 90.1389 36.2776 89.6061 36.2776H87.9632C87.4303 36.2776 87.2083 36.0555 87.2083 35.5227V33.3469C87.2083 32.8141 87.4303 32.5921 87.9632 32.5921H89.6061C90.1389 32.5921 90.361 32.8141 90.361 33.3469V33.7466H91.2934V33.1693C91.2934 32.1924 90.8494 31.7484 89.8725 31.7484H87.6524C86.6755 31.7928 86.2314 32.2369 86.2314 33.2137Z" fill="#505050"/>
<path d="M97.3764 35.7003V35.0787H96.444V35.5227C96.444 36.0555 96.2219 36.2776 95.6891 36.2776H94.0462C93.5133 36.2776 93.2913 36.0555 93.2913 35.5227V33.3469C93.2913 32.8141 93.5133 32.5921 94.0462 32.5921H95.6891C96.2219 32.5921 96.444 32.8141 96.444 33.3469V33.7466H97.3764V33.1693C97.3764 32.1924 96.9324 31.7484 95.9555 31.7484H93.7354C92.7585 31.7484 92.3145 32.1924 92.3145 33.1693V35.6559C92.3145 36.6328 92.7585 37.0768 93.7354 37.0768H95.9555C96.9324 37.1212 97.3764 36.6772 97.3764 35.7003Z" fill="#505050"/>
<path d="M103.593 37.1211V31.7927H102.75L99.3749 35.6558V31.7927H98.4424V37.1211H99.1972L102.661 33.2136V37.1211H103.593Z" fill="#505050"/>
<path d="M106.124 31.7927C105.147 31.7927 104.703 32.2368 104.703 33.2136V35.7002C104.703 36.6771 105.147 37.1211 106.124 37.1211H108.566C109.543 37.1211 109.987 36.6771 109.987 35.7002V33.2136C109.987 32.2368 109.543 31.7927 108.566 31.7927H106.124ZM108.966 33.3912V35.5226C108.966 36.0554 108.744 36.2775 108.211 36.2775H106.435C105.902 36.2775 105.68 36.0998 105.68 35.5226V33.3912C105.68 32.814 105.902 32.6364 106.435 32.6364H108.211C108.744 32.6364 108.966 32.8584 108.966 33.3912Z" fill="#505050"/>
<path d="M116.026 37.1211V31.7927H115.093V33.9241H111.985V31.7927H111.008V37.1211H111.985V34.7677H115.093V37.1211H116.026Z" fill="#505050"/>
<path d="M121.709 37.1211H122.775L120.289 31.7927H119.223L116.736 37.1211H117.758L118.246 35.9666H121.132L121.709 37.1211ZM118.646 35.2118L119.756 32.6364L120.866 35.2118H118.646Z" fill="#505050"/>
<path d="M124.862 35.8335L125.084 32.6365H127.482V37.0768H128.459V31.7484H124.152L123.885 35.6115C123.885 36.0999 123.708 36.2332 123.219 36.2332H123.042V37.0768H123.53C124.418 37.1212 124.818 36.766 124.862 35.8335Z" fill="#505050"/>
<path d="M129.569 31.7927V37.1211H133.166C134.054 37.1211 134.409 36.7659 134.409 35.8778V34.901C134.409 34.0129 134.054 33.6577 133.166 33.6577H130.546V31.8371L129.569 31.7927ZM132.855 34.3681C133.343 34.3681 133.521 34.5013 133.521 34.9898V35.7002C133.521 36.1887 133.388 36.3219 132.855 36.3219H130.59V34.3681H132.855Z" fill="#505050"/>
<path d="M135.386 31.7927V37.1211H136.363V34.7677H139.426V37.1211H140.403V31.7927H139.426V33.9241H136.363V31.7927H135.386Z" fill="#505050"/>
<path d="M146.043 37.1211H147.108L144.622 31.7927H143.556L141.069 37.1211H142.091L142.579 35.9666H145.465L146.043 37.1211ZM142.979 35.2118L144.089 32.6364L145.199 35.2118H142.979Z" fill="#505050"/>
<path d="M147.597 33.0804V33.8353C147.597 34.7233 147.952 35.0786 148.84 35.0786L147.375 37.1211H148.485L149.861 35.123H151.504V37.1211H152.481V31.7927H148.84C147.952 31.7927 147.597 32.148 147.597 33.0804ZM151.504 32.5476V34.4125H149.239C148.751 34.4125 148.573 34.2793 148.573 33.7909V33.2136C148.573 32.7252 148.707 32.592 149.239 32.592L151.504 32.5476Z" fill="#505050"/>
<path d="M59.145 41.0287H57.9462L55.6816 43.0712V41.0287H54.8823V45.4246H55.6816V43.2489L57.9906 45.4246H59.145L56.7029 43.16L59.145 41.0287Z" fill="#505050"/>
<path d="M60.0332 44.2258C60.0332 44.6254 59.9 44.7586 59.5004 44.7586H59.3672V45.469H59.7668C60.4773 45.469 60.7881 45.1582 60.8325 44.4034L61.0101 41.7836H62.9639V45.469H63.7631V41.0731H60.2108L60.0332 44.2258Z" fill="#505050"/>
<path d="M65.4062 44.2257V41.0287H64.6514V45.4246H65.273L68.1592 42.1832V45.4246H68.9141V41.0287H68.248L65.4062 44.2257Z" fill="#505050"/>
<path d="M72.2444 43.7373L70.5127 41.0287H69.8022V45.4246H70.5571V42.3608L72.0224 44.581H72.4664L73.9318 42.3608V45.4246H74.6866V41.0287H74.0206L72.2444 43.7373Z" fill="#505050"/>
<path d="M77.2618 41.0287L75.2192 45.4246H76.0629L76.4625 44.4477H78.8603L79.3043 45.4246H80.1924L78.1499 41.0287H77.2618ZM76.729 43.8261L77.6614 41.6947L78.5939 43.8261H76.729Z" fill="#505050"/>
<path d="M79.3486 41.7391H80.9916V45.4246H81.7908V41.7391H83.4337V41.0287H79.3486V41.7391Z" fill="#505050"/>
<path d="M84.7661 44.2257V41.0287H83.9668V45.4246H84.6328L87.4747 42.1832V45.4246H88.2739V41.0287H87.5635L84.7661 44.2257Z" fill="#505050"/>
<path d="M92.1369 43.1156H90.272C89.8724 43.1156 89.7392 42.9824 89.7392 42.5828V41.0287H88.8955V42.8048C88.8955 43.5597 89.2063 43.8705 89.9612 43.8705H92.1369V45.469H92.9362V41.0731H92.1369V43.1156Z" fill="#505050"/>
<path d="M94.6234 43.4709H97.1544V42.8048H94.6234V41.6947H97.3765V41.0287H93.7798V45.4246H97.4653V44.7586H94.6234V43.4709Z" fill="#505050"/>
<path d="M101.062 41.0287H99.197C98.3977 41.0287 98.0425 41.3839 98.0425 42.1832V44.2257C98.0425 45.025 98.3977 45.3802 99.197 45.3802H101.062C101.861 45.3802 102.216 45.025 102.216 44.2257V43.7373H101.417V44.1369C101.417 44.581 101.24 44.7586 100.795 44.7586H99.4634C99.0193 44.7586 98.8417 44.581 98.8417 44.1369V42.3608C98.8417 41.9168 99.0193 41.7391 99.4634 41.7391H100.795C101.24 41.7391 101.417 41.9168 101.417 42.3608V42.6716H102.216V42.1832C102.261 41.3839 101.906 41.0287 101.062 41.0287Z" fill="#505050"/>
<path d="M107.278 41.0287H106.079L103.815 43.0712V41.0287H103.016V45.4246H103.815V43.2489L106.124 45.4246H107.323L104.836 43.16L107.278 41.0287Z" fill="#505050"/>
<path d="M109.499 41.0287L107.456 45.4246H108.3L108.744 44.4477H111.142L111.586 45.4246H112.474L110.431 41.0287H109.499ZM108.966 43.8261L109.898 41.6947L110.831 43.8261H108.966Z" fill="#505050"/>
<path d="M112.696 42.05V42.6716C112.696 43.3821 113.006 43.6929 113.717 43.7373L112.518 45.4246H113.406L114.561 43.7817H115.937V45.4246H116.736V41.0287H113.761C113.006 41.0287 112.696 41.2951 112.696 42.05ZM115.937 41.6503V43.16H114.072C113.673 43.16 113.539 43.0268 113.539 42.6272V42.1388C113.539 41.7391 113.673 41.6059 114.072 41.6059L115.937 41.6503Z" fill="#505050"/>
<path d="M119.223 41.7391H120.822V45.4246H121.665V41.7391H123.264V41.0287H119.223V41.7391Z" fill="#505050"/>
<path d="M124.64 43.4709H127.171V42.8048H124.64V41.6947H127.437V41.0287H123.796V45.4246H127.482V44.7586H124.64V43.4709Z" fill="#505050"/>
<path d="M132.366 41.0287H131.434L130.146 42.7604L128.814 41.0287H127.837L129.569 43.2045L127.749 45.4246H128.681L130.058 43.6041L131.434 45.4246H132.411L130.635 43.2045L132.366 41.0287Z" fill="#505050"/>
<path d="M136.274 42.7604H133.743V41.0287H132.899V45.4246H133.743V43.4709H136.274V45.4246H137.073V41.0287H136.274V42.7604Z" fill="#505050"/>
<path d="M138.716 44.2257V41.0287H137.917V45.4246H138.583L141.425 42.1832V45.4246H142.224V41.0287H141.514L138.716 44.2257Z" fill="#505050"/>
<path d="M147.33 41.0287H146.131L143.867 43.0712V41.0287H143.067V45.4246H143.867V43.2489L146.176 45.4246H147.33L144.888 43.16L147.33 41.0287Z" fill="#505050"/>
<path d="M149.506 41.0287L147.463 45.4246H148.307L148.751 44.4477H151.149L151.593 45.4246H152.481L150.438 41.0287H149.506ZM149.017 43.8261L149.95 41.6947L150.882 43.8261H149.017Z" fill="#505050"/>
</svg>
